<svg width="8" height="8" viewBox="0 0 8 8" fill="none" xmlns="http://www.w3.org/2000/svg">
<g id="zondicons:close-solid" clip-path="url(#clip0_1205_319)">
<path id="Vector" d="M1.17232 6.82808C0.790284 6.45909 0.485555 6.01771 0.275919 5.5297C0.0662831 5.04168 -0.0440618 4.5168 -0.0486771 3.98569C-0.0532924 3.45457 0.0479144 2.92785 0.249038 2.43626C0.450162 1.94468 0.747174 1.49807 1.12274 1.1225C1.49832 0.74693 1.94492 0.449917 2.43651 0.248794C2.92809 0.0476703 3.45481 -0.0535365 3.98593 -0.0489212C4.51705 -0.044306 5.04193 0.0660389 5.52994 0.275675C6.01796 0.485311 6.45934 0.79004 6.82832 1.17208C7.55696 1.92649 7.96013 2.9369 7.95102 3.98569C7.94191 5.03447 7.52123 6.03772 6.7796 6.77936C6.03797 7.52099 5.03472 7.94166 3.98593 7.95078C2.93714 7.95989 1.92673 7.55671 1.17232 6.82808ZM4.56032 4.00008L5.69232 2.86808L5.12832 2.30408L4.00032 3.43608L2.86832 2.30408L2.30432 2.86808L3.43632 4.00008L2.30432 5.13208L2.86832 5.69608L4.00032 4.56408L5.13232 5.69608L5.69632 5.13208L4.56432 4.00008H4.56032Z" fill="#F46800"/>
</g>
<defs>
<clipPath id="clip0_1205_319">
<rect width="8" height="8" fill="white"/>
</clipPath>
</defs>
</svg>
