<svg width="140" height="74" viewBox="0 0 140 74" fill="none" xmlns="http://www.w3.org/2000/svg">
<g id="Logo 1">
<g id="Group">
<path id="Vector" d="M6.59277 35.2047C6.59277 34.631 6.61938 34.0703 6.6726 33.5232C6.72584 32.9761 6.85223 32.4889 7.05183 32.0619C7.26473 31.6216 7.57077 31.2678 7.96994 31.0009C8.36912 30.734 8.92131 30.6005 9.62654 30.6005C10.3184 30.6005 10.864 30.734 11.2632 31.0009C11.6757 31.2678 11.9817 31.6216 12.1813 32.0619C12.3942 32.4889 12.5272 32.9761 12.5805 33.5232C12.6337 34.0703 12.6603 34.631 12.6603 35.2047V41.4904H18.129V35.2047C18.129 34.631 18.1556 34.0703 18.2089 33.5232C18.2621 32.9761 18.3885 32.4889 18.5881 32.0619C18.801 31.6216 19.107 31.2678 19.5062 31.0009C19.9054 30.734 20.4575 30.6005 21.1628 30.6005C21.8547 30.6005 22.4003 30.734 22.7995 31.0009C23.2119 31.2678 23.5179 31.6216 23.7176 32.0619C23.9305 32.4889 24.0636 32.9761 24.1167 33.5232C24.1699 34.0703 24.1966 34.631 24.1966 35.2047V54.0218C24.1966 54.6091 24.1699 55.1763 24.1167 55.7234C24.0636 56.2705 23.9305 56.7643 23.7176 57.2047C23.5179 57.6318 23.2119 57.9787 22.7995 58.2458C22.4003 58.4993 21.8547 58.626 21.1628 58.626C20.4575 58.626 19.9054 58.4993 19.5062 58.2458C19.107 57.9787 18.801 57.6318 18.5881 57.2047C18.3885 56.7643 18.2621 56.2705 18.2089 55.7234C18.1556 55.1763 18.129 54.6091 18.129 54.0218V47.3758H12.6603V54.0218C12.6603 54.6091 12.6337 55.1763 12.5805 55.7234C12.5272 56.2705 12.3942 56.7643 12.1813 57.2047C11.9817 57.6318 11.6757 57.9787 11.2632 58.2458C10.864 58.4993 10.3184 58.626 9.62654 58.626C8.92131 58.626 8.36912 58.4993 7.96994 58.2458C7.57077 57.9787 7.26473 57.6318 7.05183 57.2047C6.85223 56.7643 6.72584 56.2705 6.6726 55.7234C6.61938 55.1763 6.59277 54.6091 6.59277 54.0218V35.2047ZM43.274 54.102C43.274 54.6624 43.2475 55.2163 43.1943 55.7634C43.141 56.2972 43.0147 56.7777 42.815 57.2047C42.6155 57.6318 42.3161 57.9787 41.917 58.2458C41.5178 58.4993 40.9721 58.626 40.2803 58.626C39.575 58.626 39.0229 58.4993 38.6236 58.2458C38.2244 57.9787 37.9185 57.6318 37.7055 57.2047C37.506 56.7777 37.3795 56.2972 37.3264 55.7634C37.273 55.2163 37.2465 54.6624 37.2465 54.102V47.1355L31.2988 36.4859C30.9794 35.9255 30.6734 35.3783 30.3806 34.8444C30.0879 34.2972 29.9415 33.7501 29.9415 33.203C29.9415 32.8427 30.0413 32.4823 30.241 32.1219C30.4539 31.7482 30.833 31.4014 31.3785 31.081C31.9774 30.7606 32.5361 30.6005 33.0551 30.6005C33.4544 30.6005 33.8135 30.694 34.133 30.8807C34.4655 31.0544 34.7649 31.2878 35.031 31.5814C35.2971 31.8751 35.5366 32.2086 35.7496 32.5823C35.9626 32.9427 36.1555 33.3096 36.3284 33.6833L39.9608 41.3303H40.5995L44.2322 33.6833C44.4051 33.3096 44.598 32.9427 44.811 32.5823C45.0239 32.2086 45.2633 31.8751 45.5296 31.5814C45.7957 31.2878 46.0883 31.0544 46.4076 30.8807C46.7403 30.694 47.1062 30.6005 47.5055 30.6005C47.7849 30.6005 48.0575 30.6407 48.3236 30.7206C48.5897 30.8008 48.8759 30.9209 49.182 31.081C49.701 31.4014 50.0668 31.7482 50.2798 32.1219C50.5058 32.4823 50.619 32.8427 50.619 33.203C50.619 33.4431 50.5126 33.8368 50.2996 34.384C50.0868 34.9177 49.7408 35.6184 49.2617 36.4859L43.274 47.1355V54.102ZM62.3516 47.576V54.0618C62.3516 54.6358 62.3316 55.1962 62.2918 55.7435C62.2652 56.2906 62.1522 56.7777 61.9525 57.2047C61.7663 57.6318 61.4669 57.9787 61.0542 58.2458C60.6418 58.4993 60.0497 58.626 59.278 58.626C58.5328 58.626 57.954 58.4993 57.5416 58.2458C57.1424 57.9787 56.8498 57.6318 56.6634 57.2047C56.4772 56.7777 56.3639 56.2906 56.3241 55.7435C56.2975 55.1962 56.2842 54.6358 56.2842 54.0618V35.1647C56.2842 34.5908 56.2975 34.0304 56.3241 33.4832C56.3639 32.9359 56.4772 32.4489 56.6634 32.0219C56.8498 31.5949 57.1424 31.2544 57.5416 31.0009C57.954 30.734 58.5328 30.6005 59.278 30.6005H65.8645C67.5145 30.6807 68.9913 31.0277 70.2953 31.6414C70.8542 31.9083 71.393 32.2421 71.9119 32.6424C72.4443 33.0427 72.9166 33.5365 73.3291 34.1238C73.7548 34.6976 74.0943 35.3849 74.3471 36.1856C74.5999 36.9729 74.7262 37.8872 74.7262 38.9281C74.7262 40.356 74.5 41.6105 74.0477 42.6916C73.6085 43.7592 72.9632 44.6599 72.1116 45.394C71.2732 46.1147 70.2421 46.6618 69.0179 47.0355C67.8071 47.3959 66.4366 47.576 64.9064 47.576H62.3516ZM65.066 42.8118C65.7315 42.7716 66.3301 42.6115 66.8623 42.3313C67.0886 42.2111 67.3081 42.0576 67.521 41.8709C67.734 41.6839 67.9269 41.457 68.0998 41.1901C68.2727 40.9099 68.406 40.5829 68.499 40.2093C68.6055 39.8356 68.6588 39.4086 68.6588 38.9281C68.6588 38.4745 68.6055 38.0807 68.499 37.7472C68.406 37.4001 68.2795 37.1066 68.1198 36.8663C67.9602 36.6128 67.7806 36.3992 67.5809 36.2258C67.3814 36.0521 67.175 35.9054 66.9622 35.7852C66.4566 35.5317 65.8911 35.3783 65.2657 35.3248H62.3516V42.8118H65.066ZM86.2593 37.6469C86.2726 38.2076 86.4323 38.7147 86.7382 39.1683C87.0577 39.6088 87.4701 40.0291 87.9757 40.4294C88.4947 40.8299 89.0802 41.2235 89.7322 41.6105C90.3841 41.9842 91.0494 42.3846 91.7279 42.8118C92.42 43.2254 93.092 43.6791 93.7439 44.1729C94.3959 44.6667 94.9812 45.2271 95.5004 45.8544C96.0193 46.4816 96.4383 47.189 96.7577 47.9764C97.077 48.7637 97.2501 49.6579 97.2766 50.6588V50.8189C97.2766 51.9133 97.1436 52.8676 96.8775 53.6816C96.6114 54.4956 96.2586 55.1962 95.8196 55.7835C95.3806 56.3706 94.8682 56.8578 94.2827 57.2448C93.6973 57.6185 93.0787 57.9186 92.4265 58.1455C91.7878 58.3725 91.1358 58.5326 90.4706 58.626C89.8186 58.7195 89.2 58.7728 88.6144 58.7861H88.4149C87.2839 58.7861 86.2925 58.6728 85.441 58.4458C84.5894 58.2189 83.8575 57.9186 83.2456 57.5451C82.6335 57.1581 82.1211 56.7176 81.7086 56.2238C81.3095 55.73 80.99 55.2228 80.7507 54.7024C80.5112 54.1686 80.3381 53.6416 80.2316 53.1211C80.1253 52.6005 80.072 52.1134 80.072 51.6598C80.072 51.1926 80.1519 50.7855 80.3115 50.4387C80.4711 50.0916 80.6773 49.8114 80.9302 49.5978C81.1965 49.3709 81.4957 49.204 81.8284 49.0975C82.1744 48.9907 82.5337 48.9371 82.9061 48.9371C83.2521 48.9371 83.6047 48.9907 83.964 49.0975C84.3365 49.204 84.6693 49.3709 84.962 49.5978C85.2679 49.8114 85.5142 50.0916 85.7004 50.4387C85.9001 50.7722 86.0065 51.166 86.0198 51.6196C86.0464 52.6205 86.2726 53.3079 86.6984 53.6816C87.1241 54.0419 87.7362 54.2221 88.5347 54.2221C88.9339 54.2088 89.2997 54.162 89.6324 54.0819C89.9782 53.9884 90.2711 53.8351 90.5104 53.6215C90.75 53.3946 90.9364 53.101 91.0694 52.7407C91.2158 52.367 91.2889 51.9 91.2889 51.3394C91.2889 50.6455 91.1293 50.0182 90.8099 49.4576C90.5039 48.8972 90.098 48.3767 89.5924 47.8962C89.0867 47.4157 88.5079 46.9621 87.856 46.5351C87.204 46.0946 86.5387 45.6609 85.8602 45.2339C85.1814 44.7936 84.5162 44.3397 83.8642 43.8726C83.2255 43.3923 82.6467 42.8718 82.1278 42.3112C81.6089 41.7507 81.1897 41.13 80.8705 40.4495C80.5643 39.7689 80.4047 38.9949 80.3914 38.1274V37.8072C80.4047 36.3791 80.5909 35.1914 80.9502 34.2439C81.3228 33.2963 81.8617 32.5424 82.5668 31.9819C83.2854 31.4213 84.1636 31.0277 85.2015 30.8008C86.2393 30.5606 87.4302 30.4404 88.774 30.4404H89.293C90.5172 30.4404 91.555 30.5739 92.4067 30.8408C93.2581 31.1077 93.9634 31.4479 94.5222 31.8618C95.0945 32.2755 95.5402 32.7424 95.8595 33.2631C96.1922 33.7835 96.4383 34.2972 96.5981 34.8044C96.7577 35.3115 96.8575 35.7852 96.8973 36.2258C96.9374 36.6661 96.9572 37.0197 96.9572 37.2866C96.9572 37.6871 96.8775 38.054 96.7179 38.3877C96.5713 38.7079 96.3651 38.9816 96.099 39.2083C95.8462 39.4352 95.5402 39.6154 95.1809 39.7489C94.8349 39.869 94.4558 39.929 94.0434 39.929C93.7239 39.929 93.4047 39.869 93.0852 39.7489C92.766 39.6154 92.4798 39.4485 92.227 39.2485C91.9742 39.0482 91.768 38.8213 91.6084 38.5677C91.4485 38.3008 91.3688 38.0339 91.3688 37.767C91.3688 36.6728 91.1692 35.9121 90.77 35.4849C90.3841 35.0579 89.8121 34.8444 89.0536 34.8444C88.6943 34.8444 88.3416 34.8644 87.9958 34.9044C87.663 34.9446 87.3636 35.0579 87.0975 35.2449C86.8447 35.4183 86.6385 35.6918 86.4789 36.0655C86.3325 36.4391 86.2593 36.9664 86.2593 37.6469ZM103.9 38.5277C103.9 37.2466 104.086 36.1589 104.459 35.2648C104.831 34.3573 105.304 33.6034 105.876 33.0028C106.461 32.4021 107.1 31.9352 107.792 31.6015C108.497 31.2544 109.176 30.9943 109.828 30.8207C110.493 30.6473 111.092 30.5405 111.624 30.5005C112.156 30.4605 112.549 30.4404 112.802 30.4404H113.48C113.733 30.4404 114.125 30.4605 114.658 30.5005C115.19 30.5405 115.782 30.6473 116.434 30.8207C117.086 30.9943 117.758 31.2544 118.45 31.6015C119.155 31.9352 119.787 32.4021 120.346 33.0028C120.918 33.6034 121.384 34.3573 121.743 35.2648C122.116 36.1589 122.302 37.2466 122.302 38.5277V50.4987C122.302 51.8199 122.116 52.9409 121.743 53.8617C121.384 54.7825 120.918 55.5498 120.346 56.1637C119.787 56.7777 119.155 57.2647 118.45 57.6251C117.758 57.9721 117.086 58.2322 116.434 58.4059C115.782 58.5793 115.19 58.6861 114.658 58.7261C114.125 58.7662 113.733 58.7861 113.48 58.7861H112.802C112.549 58.7861 112.156 58.7662 111.624 58.7261C111.092 58.6861 110.493 58.5793 109.828 58.4059C109.176 58.2322 108.497 57.9721 107.792 57.6251C107.1 57.2647 106.461 56.7777 105.876 56.1637C105.304 55.5498 104.831 54.7825 104.459 53.8617C104.086 52.9409 103.9 51.8199 103.9 50.4987V38.5277ZM110.526 51.2592C110.553 51.753 110.666 52.1868 110.865 52.5605C111.039 52.8942 111.298 53.1945 111.644 53.4614C112.003 53.7283 112.509 53.8617 113.161 53.8617C113.799 53.8617 114.292 53.7283 114.638 53.4614C114.984 53.1945 115.243 52.8942 115.416 52.5605C115.602 52.1868 115.716 51.753 115.755 51.2592V38.2076C115.716 37.7271 115.602 37.2933 115.416 36.9063C115.243 36.5859 114.984 36.2924 114.638 36.0255C114.292 35.7453 113.799 35.6051 113.161 35.6051C112.509 35.6051 112.003 35.7453 111.644 36.0255C111.298 36.2924 111.039 36.5859 110.865 36.9063C110.666 37.2933 110.553 37.7271 110.526 38.2076V51.2592Z" fill="#142C73"/>
</g>
<path id="Vector_2" d="M8.74169 68.7904C8.74169 68.9025 8.73638 69.0132 8.72573 69.1227C8.71508 69.2295 8.6898 69.3256 8.64989 69.4109C8.60997 69.4964 8.55009 69.5657 8.47026 69.6192C8.39043 69.6698 8.28131 69.6952 8.14294 69.6952C8.00188 69.6952 7.89145 69.6698 7.81162 69.6192C7.73177 69.5657 7.67058 69.4964 7.62799 69.4109C7.58807 69.3256 7.56279 69.2295 7.55214 69.1227C7.5415 69.0132 7.53618 68.9025 7.53618 68.7904V67.3971L6.34663 65.2671C6.28276 65.1552 6.22155 65.0457 6.163 64.9389C6.10446 64.8295 6.0752 64.72 6.0752 64.6105C6.0752 64.5386 6.09514 64.4664 6.13506 64.3945C6.17765 64.3197 6.2535 64.2504 6.36259 64.1862C6.48236 64.1221 6.59411 64.0901 6.6979 64.0901C6.77775 64.0901 6.84959 64.1087 6.91346 64.1462C6.97998 64.1809 7.03987 64.2276 7.09309 64.2863C7.14631 64.3451 7.19421 64.4117 7.23681 64.4865C7.27938 64.5585 7.31797 64.6319 7.35257 64.7067L8.07906 66.2361H8.20679L8.9333 64.7067C8.9679 64.6319 9.00649 64.5585 9.04906 64.4865C9.09165 64.4117 9.13956 64.3451 9.19278 64.2863C9.246 64.2276 9.30454 64.1809 9.3684 64.1462C9.43495 64.1087 9.50812 64.0901 9.58797 64.0901C9.64385 64.0901 9.6984 64.0981 9.75162 64.1141C9.80486 64.1303 9.86206 64.1542 9.92327 64.1862C10.0271 64.2504 10.1002 64.3197 10.1428 64.3945C10.1881 64.4664 10.2107 64.5386 10.2107 64.6105C10.2107 64.6587 10.1894 64.7374 10.1468 64.8469C10.1042 64.9535 10.035 65.0937 9.93924 65.2671L8.74169 67.3971V68.7904ZM13.3176 65.6756C13.3176 65.4194 13.3548 65.2017 13.4293 65.023C13.5039 64.8416 13.5983 64.6907 13.7128 64.5706C13.8298 64.4504 13.9576 64.357 14.096 64.2904C14.237 64.2209 14.3727 64.1688 14.5031 64.1342C14.6362 64.0995 14.756 64.0782 14.8624 64.0702C14.9688 64.0622 15.0473 64.0581 15.0979 64.0581H15.2336C15.2842 64.0581 15.3627 64.0622 15.4691 64.0702C15.5756 64.0782 15.694 64.0995 15.8244 64.1342C15.9548 64.1688 16.0892 64.2209 16.2276 64.2904C16.3686 64.357 16.495 64.4504 16.6068 64.5706C16.7212 64.6907 16.8144 64.8416 16.8862 65.023C16.9607 65.2017 16.998 65.4194 16.998 65.6756V68.0697C16.998 68.3339 16.9607 68.5582 16.8862 68.7424C16.8144 68.9265 16.7212 69.0801 16.6068 69.2028C16.495 69.3256 16.3686 69.423 16.2276 69.495C16.0892 69.5644 15.9548 69.6165 15.8244 69.6512C15.694 69.6858 15.5756 69.7073 15.4691 69.7153C15.3627 69.7233 15.2842 69.7272 15.2336 69.7272H15.0979C15.0473 69.7272 14.9688 69.7233 14.8624 69.7153C14.756 69.7073 14.6362 69.6858 14.5031 69.6512C14.3727 69.6165 14.237 69.5644 14.096 69.495C13.9576 69.423 13.8298 69.3256 13.7128 69.2028C13.5983 69.0801 13.5039 68.9265 13.4293 68.7424C13.3548 68.5582 13.3176 68.3339 13.3176 68.0697V65.6756ZM14.6428 68.2218C14.6482 68.3206 14.6708 68.4073 14.7107 68.4821C14.7453 68.5489 14.7972 68.609 14.8664 68.6623C14.9382 68.7156 15.0394 68.7424 15.1698 68.7424C15.2975 68.7424 15.396 68.7156 15.4651 68.6623C15.5344 68.609 15.5862 68.5489 15.6208 68.4821C15.6581 68.4073 15.6807 68.3206 15.6887 68.2218V65.6115C15.6807 65.5154 15.6581 65.4286 15.6208 65.3514C15.5862 65.2872 15.5344 65.2286 15.4651 65.1751C15.396 65.1191 15.2975 65.091 15.1698 65.091C15.0394 65.091 14.9382 65.1191 14.8664 65.1751C14.7972 65.2286 14.7453 65.2872 14.7107 65.3514C14.6708 65.4286 14.6482 65.5154 14.6428 65.6115V68.2218ZM20.7516 65.0029C20.7516 64.8881 20.7569 64.7762 20.7675 64.6667C20.7808 64.5572 20.8088 64.4599 20.8513 64.3744C20.8967 64.2889 20.9631 64.2209 21.051 64.1702C21.1387 64.1167 21.2599 64.0901 21.4142 64.0901C21.5685 64.0901 21.6897 64.1167 21.7774 64.1702C21.8679 64.2209 21.9345 64.2889 21.977 64.3744C22.0222 64.4599 22.0502 64.5572 22.0608 64.6667C22.0715 64.7762 22.0768 64.8881 22.0768 65.0029V68.1578C22.0847 68.2753 22.1089 68.3794 22.1487 68.47C22.1646 68.5102 22.1859 68.5489 22.2125 68.5862C22.2392 68.6236 22.2697 68.657 22.3044 68.6863C22.3416 68.7156 22.3842 68.7398 22.4322 68.7584C22.4827 68.7744 22.5399 68.7824 22.6037 68.7824C22.6676 68.7824 22.7249 68.7744 22.7753 68.7584C22.826 68.7398 22.8685 68.7156 22.9031 68.6863C22.9405 68.657 22.9724 68.6236 22.9989 68.5862C23.0255 68.5489 23.0468 68.5102 23.0629 68.47C23.1028 68.3794 23.1254 68.2753 23.1308 68.1578V65.0029C23.1308 64.8881 23.1361 64.7762 23.1467 64.6667C23.1573 64.5572 23.1839 64.4599 23.2264 64.3744C23.2718 64.2889 23.3382 64.2209 23.4261 64.1702C23.514 64.1167 23.6364 64.0901 23.7934 64.0901C23.9477 64.0901 24.0686 64.1167 24.1565 64.1702C24.2444 64.2209 24.3096 64.2889 24.3521 64.3744C24.3973 64.4599 24.4253 64.5572 24.4359 64.6667C24.4492 64.7762 24.4559 64.8881 24.4559 65.0029V68.0537C24.4559 68.3312 24.4108 68.5742 24.3202 68.7824C24.2324 68.9905 24.1061 69.1653 23.9409 69.3068C23.7786 69.4458 23.583 69.5511 23.3541 69.6231C23.1281 69.6926 22.8779 69.7272 22.6037 69.7272C22.3269 69.7272 22.0755 69.6911 21.8493 69.6192C21.623 69.5444 21.4275 69.4363 21.2625 69.2949C21.1002 69.1534 20.9737 68.9786 20.8832 68.7703C20.7955 68.5623 20.7516 68.3233 20.7516 68.0537V65.0029ZM28.3533 65.0029C28.3533 64.8881 28.3559 64.7762 28.3612 64.6667C28.3692 64.5572 28.3917 64.4599 28.4291 64.3744C28.4663 64.2889 28.5249 64.2209 28.6047 64.1702C28.6872 64.1167 28.8029 64.0901 28.9519 64.0901H30.2693C30.5965 64.1061 30.8894 64.1756 31.1475 64.2983C31.2565 64.3516 31.363 64.4185 31.4668 64.4984C31.5733 64.5759 31.6677 64.6733 31.7503 64.7907C31.8326 64.9055 31.8992 65.0416 31.9497 65.1991C32.0004 65.3567 32.0256 65.5395 32.0256 65.7476C32.0256 65.7904 32.0217 65.8476 32.0137 65.9198C32.0057 65.9893 31.9884 66.0666 31.9618 66.152C31.9352 66.2346 31.8992 66.3216 31.8541 66.4122C31.8087 66.503 31.7488 66.5897 31.6744 66.6725C31.5998 66.7553 31.5081 66.8314 31.3989 66.9006C31.2924 66.9701 31.1661 67.0261 31.0198 67.0689C31.1128 67.1062 31.2074 67.1557 31.3031 67.2169C31.3989 67.2758 31.4854 67.3518 31.5626 67.4451C31.6397 67.5386 31.7022 67.6507 31.7503 67.7815C31.8007 67.9123 31.8261 68.0644 31.8261 68.238V68.8064C31.8261 68.8384 31.8341 68.8652 31.85 68.8866C31.8659 68.9079 31.8819 68.9265 31.8978 68.9425C31.9618 69.0067 31.999 69.0626 32.0096 69.1106C32.0202 69.1561 32.0256 69.1934 32.0256 69.2227C32.0256 69.3162 32.007 69.3949 31.9698 69.4591C31.9326 69.523 31.8833 69.5751 31.822 69.6151C31.7635 69.6553 31.6957 69.6831 31.6184 69.6993C31.544 69.718 31.4668 69.7272 31.3869 69.7272C31.2992 69.7272 31.2101 69.7139 31.1195 69.6872C31.029 69.6579 30.9464 69.6165 30.872 69.563C30.7974 69.5097 30.7363 69.4431 30.6883 69.3629C30.6431 69.2828 30.6204 69.1908 30.6204 69.0866V68.238C30.6204 68.1205 30.6125 68.0123 30.5965 67.9137C30.5806 67.8149 30.5499 67.7294 30.5048 67.6575C30.4596 67.5853 30.3971 67.5293 30.3171 67.4892C30.2372 67.4492 30.1336 67.4291 30.0059 67.4291H29.5587V68.7664C29.5587 68.8839 29.5548 68.9987 29.5468 69.1106C29.5413 69.2227 29.5201 69.323 29.4829 69.4109C29.4457 69.4964 29.3858 69.5657 29.3032 69.6192C29.2207 69.6698 29.1037 69.6952 28.9519 69.6952C28.8029 69.6952 28.6872 69.6698 28.6047 69.6192C28.5249 69.5657 28.4663 69.4964 28.4291 69.4109C28.3917 69.323 28.3692 69.2227 28.3612 69.1106C28.3559 68.9987 28.3533 68.8839 28.3533 68.7664V65.0029ZM30.1015 66.5323C30.2346 66.527 30.3543 66.495 30.4608 66.4364C30.5062 66.4122 30.5499 66.3816 30.5926 66.3441C30.6352 66.3068 30.6738 66.2601 30.7083 66.2041C30.7429 66.1479 30.7696 66.0825 30.7882 66.0079C30.8095 65.9331 30.8201 65.8464 30.8201 65.7476C30.8201 65.6595 30.8095 65.5822 30.7882 65.5154C30.7696 65.4461 30.7443 65.386 30.7124 65.3352C30.6803 65.2845 30.6431 65.2419 30.6006 65.2071C30.5606 65.1724 30.5195 65.1443 30.4768 65.123C30.3758 65.0724 30.2614 65.0431 30.1336 65.0351H29.5587V66.5323H30.1015ZM41.8 65.0109C41.8 64.8963 41.8053 64.7842 41.8162 64.6747C41.8268 64.5652 41.8519 64.4679 41.892 64.3824C41.9345 64.2942 41.9956 64.2235 42.0755 64.1702C42.1554 64.1167 42.2658 64.0901 42.4068 64.0901C42.5585 64.0901 42.677 64.1167 42.762 64.1702C42.8472 64.2235 42.9098 64.2942 42.9496 64.3824C42.9897 64.4679 43.0136 64.5652 43.0216 64.6747C43.0322 64.7842 43.0375 64.8963 43.0375 65.0109V68.5182H43.8199C43.929 68.5182 44.0367 68.5235 44.1432 68.5342C44.2497 68.5448 44.3441 68.5703 44.4267 68.6102C44.5119 68.6502 44.5798 68.709 44.6303 68.7863C44.6807 68.8638 44.7061 68.9692 44.7061 69.1026C44.7061 69.2387 44.6807 69.347 44.6303 69.4269C44.5798 69.5044 44.5119 69.563 44.4267 69.6032C44.3441 69.6432 44.2497 69.6686 44.1432 69.6792C44.0367 69.6899 43.929 69.6952 43.8199 69.6952H42.6862C42.5452 69.6952 42.4201 69.6899 42.311 69.6792C42.202 69.6686 42.1088 69.6432 42.0316 69.6032C41.9572 69.563 41.8999 69.5044 41.8599 69.4269C41.82 69.347 41.8 69.2387 41.8 69.1026V65.0109ZM48.1482 65.6756C48.1482 65.4194 48.1856 65.2017 48.26 65.023C48.3346 64.8416 48.4291 64.6907 48.5435 64.5706C48.6606 64.4504 48.7884 64.357 48.9267 64.2904C49.0677 64.2209 49.2035 64.1688 49.3338 64.1342C49.4669 64.0995 49.5867 64.0782 49.6931 64.0702C49.7996 64.0622 49.8781 64.0581 49.9286 64.0581H50.0643C50.115 64.0581 50.1935 64.0622 50.3 64.0702C50.4064 64.0782 50.5248 64.0995 50.6552 64.1342C50.7856 64.1688 50.92 64.2209 51.0584 64.2904C51.1994 64.357 51.3257 64.4504 51.4375 64.5706C51.552 64.6907 51.6452 64.8416 51.7169 65.023C51.7915 65.2017 51.8287 65.4194 51.8287 65.6756V68.0697C51.8287 68.3339 51.7915 68.5582 51.7169 68.7424C51.6452 68.9265 51.552 69.0801 51.4375 69.2028C51.3257 69.3256 51.1994 69.423 51.0584 69.495C50.92 69.5644 50.7856 69.6165 50.6552 69.6512C50.5248 69.6858 50.4064 69.7073 50.3 69.7153C50.1935 69.7233 50.115 69.7272 50.0643 69.7272H49.9286C49.8781 69.7272 49.7996 69.7233 49.6931 69.7153C49.5867 69.7073 49.4669 69.6858 49.3338 69.6512C49.2035 69.6165 49.0677 69.5644 48.9267 69.495C48.7884 69.423 48.6606 69.3256 48.5435 69.2028C48.4291 69.0801 48.3346 68.9265 48.26 68.7424C48.1856 68.5582 48.1482 68.3339 48.1482 68.0697V65.6756ZM49.4736 68.2218C49.479 68.3206 49.5014 68.4073 49.5415 68.4821C49.576 68.5489 49.628 68.609 49.6972 68.6623C49.769 68.7156 49.8701 68.7424 50.0005 68.7424C50.1283 68.7424 50.2268 68.7156 50.2959 68.6623C50.3651 68.609 50.4171 68.5489 50.4516 68.4821C50.4888 68.4073 50.5115 68.3206 50.5195 68.2218V65.6115C50.5115 65.5154 50.4888 65.4286 50.4516 65.3514C50.4171 65.2872 50.3651 65.2286 50.2959 65.1751C50.2268 65.1191 50.1283 65.091 50.0005 65.091C49.8701 65.091 49.769 65.1191 49.6972 65.1751C49.628 65.2286 49.576 65.2872 49.5415 65.3514C49.5014 65.4286 49.479 65.5154 49.4736 65.6115V68.2218ZM57.235 64.0581C57.5276 64.0581 57.7792 64.0915 57.9893 64.1581C58.2023 64.225 58.3805 64.3117 58.5242 64.4185C58.6705 64.5253 58.7876 64.6466 58.8755 64.7827C58.9634 64.9162 59.0298 65.0523 59.0752 65.1911C59.123 65.3298 59.1537 65.4633 59.167 65.5914C59.1829 65.7195 59.1909 65.8304 59.1909 65.9239C59.1909 65.9639 59.187 66.0133 59.1788 66.0719C59.1735 66.1281 59.151 66.1828 59.111 66.2361C59.0711 66.2894 59.0073 66.3349 58.9195 66.3722C58.8342 66.4095 58.7118 66.4282 58.5522 66.4282C58.4991 66.4282 58.4324 66.4255 58.3525 66.4202C58.2728 66.4122 58.1955 66.3949 58.1212 66.3683C58.0466 66.3388 57.9828 66.2988 57.9294 66.2482C57.8763 66.1947 57.8497 66.1213 57.8497 66.0278C57.8497 65.8837 57.8403 65.7544 57.8217 65.6396C57.8058 65.5248 57.7751 65.4274 57.73 65.3473C57.6846 65.2671 57.6221 65.2058 57.5423 65.1632C57.4624 65.1203 57.36 65.099 57.235 65.099C57.1046 65.099 57.0034 65.1271 56.9315 65.1831C56.8624 65.2366 56.8117 65.2952 56.7798 65.3594C56.7426 65.4366 56.7214 65.5233 56.716 65.6195V68.1578C56.7214 68.2753 56.7426 68.378 56.7798 68.4661C56.8117 68.5436 56.8624 68.6143 56.9315 68.6783C57.0034 68.7424 57.1046 68.7744 57.235 68.7744C57.36 68.7744 57.4624 68.749 57.5423 68.6984C57.6221 68.6449 57.6846 68.5742 57.73 68.4862C57.7751 68.3981 57.8058 68.2966 57.8217 68.1818C57.8403 68.067 57.8497 67.9469 57.8497 67.8214C57.8497 67.7815 57.8563 67.7401 57.8696 67.6974C57.8828 67.6548 57.9135 67.616 57.9613 67.5814C58.0094 67.5439 58.0799 67.5131 58.1731 67.4892C58.2661 67.4652 58.3926 67.4531 58.5522 67.4531C58.7118 67.4531 58.8342 67.4719 58.9195 67.5093C59.0073 67.5439 59.0711 67.5853 59.111 67.6333C59.151 67.6788 59.1735 67.7241 59.1788 67.7694C59.187 67.8122 59.1909 67.8403 59.1909 67.8536C59.1909 68.1472 59.1416 68.41 59.0431 68.6422C58.9448 68.8718 58.805 69.0667 58.6241 69.2268C58.4457 69.3869 58.2315 69.5097 57.9814 69.5952C57.7339 69.6778 57.4612 69.7192 57.163 69.7192C57.1152 69.7192 57.0367 69.7153 56.9276 69.7073C56.8211 69.6993 56.7013 69.6778 56.5683 69.6432C56.4352 69.6085 56.2981 69.5565 56.1571 69.487C56.016 69.4177 55.8871 69.3215 55.77 69.1987C55.6555 69.0733 55.5611 68.9185 55.4865 68.7343C55.4119 68.5475 55.3747 68.3206 55.3747 68.0537V65.8198C55.3747 65.6008 55.4013 65.4073 55.4546 65.2392C55.5078 65.0709 55.577 64.9256 55.6621 64.8028C55.7499 64.6774 55.8497 64.5732 55.9615 64.4904C56.0733 64.4051 56.1877 64.3344 56.3048 64.2783C56.5762 64.1501 56.8863 64.0768 57.235 64.0581ZM63.7986 67.277H65.068L64.4774 65.131H64.3895L63.7986 67.277ZM66.3055 67.6693C66.3108 67.851 66.3176 68.0365 66.3256 68.2259C66.3335 68.4155 66.3374 68.5981 66.3374 68.7744V68.8945C66.3374 68.996 66.3335 69.0946 66.3256 69.1908C66.3202 69.2842 66.3002 69.3695 66.2657 69.447C66.2309 69.5218 66.1764 69.5819 66.102 69.6272C66.0274 69.6725 65.9223 69.6952 65.7866 69.6952C65.6482 69.6952 65.5418 69.6725 65.4672 69.6272C65.3928 69.5819 65.3368 69.5218 65.2996 69.447C65.265 69.3722 65.2438 69.2869 65.2358 69.1908C65.2305 69.0946 65.2278 68.996 65.2278 68.8945V68.3339H63.631V68.8945C63.631 68.996 63.6271 69.0946 63.619 69.1908C63.6136 69.2869 63.5924 69.3722 63.5552 69.447C63.5207 69.5218 63.4661 69.5819 63.3915 69.6272C63.3171 69.6725 63.2106 69.6952 63.0722 69.6952C62.9339 69.6952 62.8274 69.6725 62.7528 69.6272C62.6784 69.5819 62.6238 69.5218 62.5891 69.447C62.5546 69.3695 62.5345 69.2842 62.5292 69.1908C62.5239 69.0946 62.5212 68.996 62.5212 68.8945V68.7744C62.5212 68.6916 62.5212 68.6035 62.5212 68.5102C62.5239 68.4167 62.5266 68.322 62.5292 68.2259C62.5319 68.1297 62.5345 68.035 62.5372 67.9416C62.54 67.8456 62.5427 67.7548 62.5454 67.6693C62.6784 67.2051 62.818 66.7352 62.9643 66.2601C63.1107 65.7822 63.2505 65.31 63.3835 64.8428C63.4101 64.744 63.4422 64.6493 63.4794 64.5585C63.5166 64.4652 63.5658 64.3851 63.6271 64.3184C63.6882 64.2489 63.7667 64.1942 63.8626 64.1542C63.9584 64.1114 64.0809 64.0901 64.2299 64.0901H64.629C64.7753 64.0901 64.8963 64.1114 64.9922 64.1542C65.0907 64.1942 65.1706 64.2489 65.2317 64.3184C65.293 64.3851 65.3409 64.4652 65.3754 64.5585C65.4126 64.6493 65.4459 64.744 65.4751 64.8428L66.3055 67.6693ZM70.1229 65.0109C70.1229 64.8963 70.1282 64.7842 70.1389 64.6747C70.1495 64.5652 70.1748 64.4679 70.2147 64.3824C70.2574 64.2942 70.3185 64.2235 70.3984 64.1702C70.4781 64.1167 70.5887 64.0901 70.7297 64.0901C70.8814 64.0901 70.9997 64.1167 71.0849 64.1702C71.1702 64.2235 71.2327 64.2942 71.2726 64.3824C71.3124 64.4679 71.3365 64.5652 71.3445 64.6747C71.3551 64.7842 71.3605 64.8963 71.3605 65.0109V68.5182H72.1428C72.252 68.5182 72.3597 68.5235 72.4661 68.5342C72.5726 68.5448 72.667 68.5703 72.7496 68.6102C72.8346 68.6502 72.9025 68.709 72.9532 68.7863C73.0037 68.8638 73.029 68.9692 73.029 69.1026C73.029 69.2387 73.0037 69.347 72.9532 69.4269C72.9025 69.5044 72.8346 69.563 72.7496 69.6032C72.667 69.6432 72.5726 69.6686 72.4661 69.6792C72.3597 69.6899 72.252 69.6952 72.1428 69.6952H71.0091C70.8681 69.6952 70.743 69.6899 70.6339 69.6792C70.5247 69.6686 70.4317 69.6432 70.3545 69.6032C70.2799 69.563 70.2227 69.5044 70.1828 69.4269C70.143 69.347 70.1229 69.2387 70.1229 69.1026V65.0109ZM83.6097 65.4994C83.6124 65.6115 83.6443 65.713 83.7056 65.8038C83.7694 65.8917 83.8519 65.9758 83.9531 66.0559C84.0569 66.1361 84.174 66.2148 84.3044 66.292C84.4348 66.3669 84.5679 66.447 84.7036 66.5323C84.8419 66.6151 84.9762 66.7059 85.1066 66.8045C85.237 66.9033 85.3541 67.0154 85.4579 67.1409C85.5618 67.2663 85.6456 67.4078 85.7095 67.5652C85.7733 67.7228 85.8078 67.9016 85.8131 68.1019V68.1338C85.8131 68.3528 85.7866 68.5436 85.7334 68.7064C85.6801 68.8691 85.6096 69.0093 85.5219 69.1268C85.434 69.244 85.3316 69.3416 85.2145 69.4189C85.0974 69.4937 84.9736 69.5538 84.8432 69.5991C84.7154 69.6446 84.585 69.6766 84.452 69.6952C84.3216 69.7139 84.1979 69.7245 84.0808 69.7272H84.041C83.8147 69.7272 83.6165 69.7047 83.446 69.6591C83.2758 69.6138 83.1294 69.5538 83.007 69.479C82.8846 69.4017 82.7822 69.3135 82.6996 69.2147C82.6197 69.1159 82.556 69.0147 82.5081 68.9105C82.4601 68.8037 82.4256 68.6984 82.4043 68.5942C82.383 68.4901 82.3724 68.3927 82.3724 68.3019C82.3724 68.2085 82.3884 68.1271 82.4202 68.0578C82.4521 67.9883 82.4934 67.9323 82.5439 67.8895C82.5972 67.8442 82.6571 67.8108 82.7235 67.7895C82.7928 67.7682 82.8646 67.7575 82.9392 67.7575C83.0082 67.7575 83.079 67.7682 83.1507 67.7895C83.2253 67.8108 83.2917 67.8442 83.3504 67.8895C83.4115 67.9323 83.4607 67.9883 83.4979 68.0578C83.538 68.1244 83.5593 68.2031 83.5619 68.2939C83.5672 68.4942 83.6124 68.6316 83.6976 68.7064C83.7828 68.7783 83.9053 68.8144 84.0649 68.8144C84.1446 68.8117 84.2178 68.8025 84.2844 68.7863C84.3537 68.7677 84.4121 68.7371 84.46 68.6943C84.508 68.649 84.5452 68.5901 84.5718 68.5182C84.601 68.4434 84.6157 68.3501 84.6157 68.238C84.6157 68.0992 84.5838 67.9737 84.5198 67.8616C84.4587 67.7495 84.3776 67.6454 84.2764 67.5492C84.1753 67.4531 84.0596 67.3625 83.9292 67.277C83.7988 67.1889 83.6657 67.1021 83.53 67.0169C83.3943 66.9287 83.2611 66.8379 83.1307 66.7445C83.0029 66.6485 82.8873 66.5444 82.7834 66.4323C82.6796 66.3201 82.5958 66.1961 82.532 66.06C82.4707 65.9239 82.4388 65.7689 82.4362 65.5955V65.5315C82.4388 65.2458 82.476 65.0082 82.548 64.8188C82.6224 64.6292 82.7303 64.4785 82.8713 64.3664C83.015 64.2543 83.1906 64.1756 83.3982 64.1303C83.6059 64.0821 83.844 64.0581 84.1127 64.0581H84.2165C84.4614 64.0581 84.6688 64.0848 84.8393 64.1383C85.0095 64.1915 85.1506 64.2596 85.2624 64.3424C85.3768 64.425 85.4659 64.5185 85.5299 64.6226C85.5963 64.7268 85.6456 64.8295 85.6774 64.9309C85.7095 65.0324 85.7294 65.1271 85.7373 65.2153C85.7453 65.3032 85.7494 65.3739 85.7494 65.4274C85.7494 65.5074 85.7334 65.5807 85.7016 65.6476C85.6721 65.7115 85.6311 65.7663 85.5777 65.8118C85.5272 65.8571 85.4659 65.8931 85.3942 65.9198C85.3249 65.9438 85.2491 65.9559 85.1665 65.9559C85.1027 65.9559 85.0388 65.9438 84.975 65.9198C84.911 65.8931 84.8538 65.8597 84.8033 65.8198C84.7528 65.7796 84.7115 65.7343 84.6797 65.6836C84.6476 65.6301 84.6316 65.5768 84.6316 65.5233C84.6316 65.3046 84.5918 65.1525 84.5119 65.067C84.4348 64.9816 84.3204 64.9389 84.1687 64.9389C84.0968 64.9389 84.0263 64.9428 83.957 64.9508C83.8905 64.959 83.8307 64.9816 83.7775 65.0191C83.7268 65.0537 83.6856 65.1085 83.6537 65.1831C83.6245 65.2579 83.6097 65.3633 83.6097 65.4994ZM91.8262 64.0901C91.9327 64.0901 92.039 64.0942 92.1454 64.1022C92.2546 64.1102 92.3531 64.1329 92.441 64.1702C92.5287 64.2075 92.5992 64.2649 92.6525 64.3424C92.7083 64.417 92.7363 64.5226 92.7363 64.6587C92.7363 64.7922 92.7083 64.8975 92.6525 64.975C92.5992 65.0496 92.5287 65.1058 92.441 65.1431C92.3531 65.1804 92.2546 65.2044 92.1454 65.2153C92.039 65.2232 91.9327 65.2271 91.8262 65.2271H91.4191V68.7824C91.4191 68.8972 91.415 69.0093 91.407 69.1188C91.4017 69.2281 91.3804 69.3256 91.343 69.4109C91.3059 69.4964 91.246 69.5657 91.1636 69.6192C91.081 69.6698 90.9639 69.6952 90.8123 69.6952C90.6606 69.6952 90.5435 69.6698 90.461 69.6192C90.3784 69.5657 90.3185 69.4964 90.2813 69.4109C90.2441 69.3256 90.2214 69.2281 90.2134 69.1188C90.2081 69.0093 90.2055 68.8972 90.2055 68.7824V65.2271H89.7983C89.6919 65.2271 89.5842 65.2232 89.475 65.2153C89.3685 65.2044 89.2715 65.1804 89.1836 65.1431C89.0957 65.1058 89.024 65.0496 88.9679 64.975C88.9148 64.8975 88.8882 64.7922 88.8882 64.6587C88.8882 64.5226 88.9148 64.417 88.9679 64.3424C89.024 64.2649 89.0957 64.2075 89.1836 64.1702C89.2715 64.1329 89.3685 64.1102 89.475 64.1022C89.5842 64.0942 89.6919 64.0901 89.7983 64.0901H91.8262ZM95.9628 65.6756C95.9628 65.4194 96.0002 65.2017 96.0746 65.023C96.1492 64.8416 96.2437 64.6907 96.3581 64.5706C96.4752 64.4504 96.603 64.357 96.7413 64.2904C96.8823 64.2209 97.0181 64.1688 97.1485 64.1342C97.2815 64.0995 97.4013 64.0782 97.5078 64.0702C97.6142 64.0622 97.6927 64.0581 97.7432 64.0581H97.8789C97.9296 64.0581 98.0081 64.0622 98.1146 64.0702C98.221 64.0782 98.3394 64.0995 98.4698 64.1342C98.6002 64.1688 98.7346 64.2209 98.873 64.2904C99.014 64.357 99.1403 64.4504 99.2521 64.5706C99.3666 64.6907 99.4598 64.8416 99.5315 65.023C99.6061 65.2017 99.6433 65.4194 99.6433 65.6756V68.0697C99.6433 68.3339 99.6061 68.5582 99.5315 68.7424C99.4598 68.9265 99.3666 69.0801 99.2521 69.2028C99.1403 69.3256 99.014 69.423 98.873 69.495C98.7346 69.5644 98.6002 69.6165 98.4698 69.6512C98.3394 69.6858 98.221 69.7073 98.1146 69.7153C98.0081 69.7233 97.9296 69.7272 97.8789 69.7272H97.7432C97.6927 69.7272 97.6142 69.7233 97.5078 69.7153C97.4013 69.7073 97.2815 69.6858 97.1485 69.6512C97.0181 69.6165 96.8823 69.5644 96.7413 69.495C96.603 69.423 96.4752 69.3256 96.3581 69.2028C96.2437 69.0801 96.1492 68.9265 96.0746 68.7424C96.0002 68.5582 95.9628 68.3339 95.9628 68.0697V65.6756ZM97.2882 68.2218C97.2936 68.3206 97.316 68.4073 97.3561 68.4821C97.3906 68.5489 97.4426 68.609 97.5118 68.6623C97.5836 68.7156 97.6847 68.7424 97.8151 68.7424C97.9429 68.7424 98.0414 68.7156 98.1105 68.6623C98.1797 68.609 98.2317 68.5489 98.2662 68.4821C98.3034 68.4073 98.3261 68.3206 98.3341 68.2218V65.6115C98.3261 65.5154 98.3034 65.4286 98.2662 65.3514C98.2317 65.2872 98.1797 65.2286 98.1105 65.1751C98.0414 65.1191 97.9429 65.091 97.8151 65.091C97.6847 65.091 97.5836 65.1191 97.5118 65.1751C97.4426 65.2286 97.3906 65.2872 97.3561 65.3514C97.316 65.4286 97.2936 65.5154 97.2882 65.6115V68.2218ZM103.397 65.0029C103.397 64.8881 103.4 64.7762 103.405 64.6667C103.413 64.5572 103.436 64.4599 103.473 64.3744C103.51 64.2889 103.569 64.2209 103.648 64.1702C103.731 64.1167 103.847 64.0901 103.996 64.0901H105.313C105.64 64.1061 105.933 64.1756 106.191 64.2983C106.3 64.3516 106.407 64.4185 106.51 64.4984C106.617 64.5759 106.711 64.6733 106.794 64.7907C106.877 64.9055 106.943 65.0416 106.993 65.1991C107.044 65.3567 107.069 65.5395 107.069 65.7476C107.069 65.7904 107.065 65.8476 107.057 65.9198C107.049 65.9893 107.032 66.0666 107.005 66.152C106.979 66.2346 106.943 66.3216 106.898 66.4122C106.852 66.503 106.793 66.5897 106.718 66.6725C106.644 66.7553 106.552 66.8314 106.443 66.9006C106.336 66.9701 106.21 67.0261 106.063 67.0689C106.156 67.1062 106.251 67.1557 106.347 67.2169C106.443 67.2758 106.529 67.3518 106.606 67.4451C106.684 67.5386 106.746 67.6507 106.794 67.7815C106.844 67.9123 106.87 68.0644 106.87 68.238V68.8064C106.87 68.8384 106.878 68.8652 106.894 68.8866C106.91 68.9079 106.926 68.9265 106.942 68.9425C107.005 69.0067 107.043 69.0626 107.053 69.1106C107.064 69.1561 107.069 69.1934 107.069 69.2227C107.069 69.3162 107.051 69.3949 107.013 69.4591C106.976 69.523 106.927 69.5751 106.866 69.6151C106.807 69.6553 106.739 69.6831 106.662 69.6993C106.588 69.718 106.51 69.7272 106.431 69.7272C106.343 69.7272 106.254 69.7139 106.163 69.6872C106.073 69.6579 105.99 69.6165 105.916 69.563C105.841 69.5097 105.78 69.4431 105.732 69.3629C105.687 69.2828 105.664 69.1908 105.664 69.0866V68.238C105.664 68.1205 105.656 68.0123 105.64 67.9137C105.624 67.8149 105.594 67.7294 105.548 67.6575C105.503 67.5853 105.441 67.5293 105.361 67.4892C105.281 67.4492 105.177 67.4291 105.05 67.4291H104.602V68.7664C104.602 68.8839 104.598 68.9987 104.591 69.1106C104.585 69.2227 104.564 69.323 104.527 69.4109C104.489 69.4964 104.429 69.5657 104.347 69.6192C104.265 69.6698 104.147 69.6952 103.996 69.6952C103.847 69.6952 103.731 69.6698 103.648 69.6192C103.569 69.5657 103.51 69.4964 103.473 69.4109C103.436 69.323 103.413 69.2227 103.405 69.1106C103.4 68.9987 103.397 68.8839 103.397 68.7664V65.0029ZM105.145 66.5323C105.278 66.527 105.398 66.495 105.505 66.4364C105.55 66.4122 105.594 66.3816 105.636 66.3441C105.679 66.3068 105.717 66.2601 105.752 66.2041C105.787 66.1479 105.813 66.0825 105.832 66.0079C105.853 65.9331 105.864 65.8464 105.864 65.7476C105.864 65.6595 105.853 65.5822 105.832 65.5154C105.813 65.4461 105.788 65.386 105.756 65.3352C105.724 65.2845 105.687 65.2419 105.644 65.2071C105.604 65.1724 105.563 65.1443 105.52 65.123C105.419 65.0724 105.305 65.0431 105.177 65.0351H104.602V66.5323H105.145ZM112.891 64.0901C112.997 64.0901 113.105 64.0942 113.214 64.1022C113.323 64.1102 113.422 64.1329 113.509 64.1702C113.597 64.2075 113.669 64.2649 113.725 64.3424C113.781 64.417 113.809 64.5226 113.809 64.6587C113.809 64.7948 113.781 64.9016 113.725 64.9789C113.669 65.0537 113.597 65.1097 113.509 65.147C113.422 65.1845 113.323 65.2071 113.214 65.2153C113.105 65.2232 112.997 65.2271 112.891 65.2271H111.941V66.3162H112.444C112.55 66.3162 112.657 66.3201 112.763 66.3281C112.872 66.3335 112.968 66.3548 113.05 66.3923C113.135 66.4269 113.205 66.4817 113.258 66.5565C113.311 66.6284 113.338 66.7299 113.338 66.8607C113.338 66.9941 113.311 67.0968 113.258 67.169C113.205 67.2409 113.135 67.2957 113.05 67.3332C112.968 67.3678 112.872 67.3891 112.763 67.3971C112.657 67.4025 112.55 67.4051 112.444 67.4051H111.941V68.5582H112.891C112.997 68.5582 113.105 68.5623 113.214 68.5703C113.323 68.5783 113.422 68.6008 113.509 68.6383C113.597 68.673 113.669 68.7289 113.725 68.8064C113.781 68.8812 113.809 68.9852 113.809 69.1188C113.809 69.2576 113.779 69.3656 113.721 69.4431C113.665 69.5204 113.593 69.5778 113.505 69.6151C113.418 69.6526 113.319 69.6751 113.21 69.6831C113.101 69.6911 112.994 69.6952 112.891 69.6952H111.326C111.177 69.6952 111.061 69.6686 110.979 69.6151C110.899 69.5618 110.84 69.4923 110.803 69.407C110.766 69.3189 110.743 69.2201 110.735 69.1106C110.73 69.0013 110.727 68.8892 110.727 68.7744V65.0109C110.727 64.8963 110.73 64.7842 110.735 64.6747C110.743 64.5652 110.766 64.4679 110.803 64.3824C110.84 64.2942 110.899 64.2235 110.979 64.1702C111.061 64.1167 111.177 64.0901 111.326 64.0901H112.891ZM118.472 65.4994C118.475 65.6115 118.507 65.713 118.568 65.8038C118.632 65.8917 118.715 65.9758 118.816 66.0559C118.92 66.1361 119.037 66.2148 119.167 66.292C119.297 66.3669 119.431 66.447 119.566 66.5323C119.705 66.6151 119.839 66.7059 119.969 66.8045C120.1 66.9033 120.217 67.0154 120.321 67.1409C120.424 67.2663 120.508 67.4078 120.572 67.5652C120.636 67.7228 120.67 67.9016 120.676 68.1019V68.1338C120.676 68.3528 120.649 68.5436 120.596 68.7064C120.543 68.8691 120.472 69.0093 120.385 69.1268C120.297 69.244 120.194 69.3416 120.077 69.4189C119.96 69.4937 119.836 69.5538 119.706 69.5991C119.578 69.6446 119.448 69.6766 119.315 69.6952C119.184 69.7139 119.061 69.7245 118.943 69.7272H118.904C118.677 69.7272 118.479 69.7047 118.309 69.6591C118.138 69.6138 117.992 69.5538 117.87 69.479C117.747 69.4017 117.645 69.3135 117.562 69.2147C117.483 69.1159 117.419 69.0147 117.371 68.9105C117.323 68.8037 117.288 68.6984 117.267 68.5942C117.246 68.4901 117.235 68.3927 117.235 68.3019C117.235 68.2085 117.251 68.1271 117.283 68.0578C117.315 67.9883 117.356 67.9323 117.407 67.8895C117.46 67.8442 117.52 67.8108 117.586 67.7895C117.655 67.7682 117.727 67.7575 117.802 67.7575C117.871 67.7575 117.942 67.7682 118.013 67.7895C118.088 67.8108 118.154 67.8442 118.213 67.8895C118.274 67.9323 118.323 67.9883 118.361 68.0578C118.401 68.1244 118.422 68.2031 118.425 68.2939C118.43 68.4942 118.475 68.6316 118.56 68.7064C118.645 68.7783 118.768 68.8144 118.928 68.8144C119.007 68.8117 119.081 68.8025 119.147 68.7863C119.216 68.7677 119.275 68.7371 119.323 68.6943C119.371 68.649 119.408 68.5901 119.434 68.5182C119.464 68.4434 119.478 68.3501 119.478 68.238C119.478 68.0992 119.446 67.9737 119.382 67.8616C119.321 67.7495 119.24 67.6454 119.139 67.5492C119.038 67.4531 118.922 67.3625 118.792 67.277C118.661 67.1889 118.528 67.1021 118.393 67.0169C118.257 66.9287 118.124 66.8379 117.994 66.7445C117.866 66.6485 117.75 66.5444 117.646 66.4323C117.542 66.3201 117.458 66.1961 117.395 66.06C117.333 65.9239 117.301 65.7689 117.299 65.5955V65.5315C117.301 65.2458 117.339 65.0082 117.411 64.8188C117.485 64.6292 117.593 64.4785 117.734 64.3664C117.878 64.2543 118.053 64.1756 118.261 64.1303C118.469 64.0821 118.707 64.0581 118.975 64.0581H119.079C119.324 64.0581 119.532 64.0848 119.702 64.1383C119.872 64.1915 120.013 64.2596 120.125 64.3424C120.239 64.425 120.329 64.5185 120.393 64.6226C120.459 64.7268 120.508 64.8295 120.54 64.9309C120.572 65.0324 120.592 65.1271 120.6 65.2153C120.608 65.3032 120.612 65.3739 120.612 65.4274C120.612 65.5074 120.596 65.5807 120.564 65.6476C120.535 65.7115 120.494 65.7663 120.44 65.8118C120.39 65.8571 120.329 65.8931 120.257 65.9198C120.188 65.9438 120.112 65.9559 120.029 65.9559C119.965 65.9559 119.901 65.9438 119.838 65.9198C119.774 65.8931 119.717 65.8597 119.666 65.8198C119.615 65.7796 119.574 65.7343 119.542 65.6836C119.51 65.6301 119.494 65.5768 119.494 65.5233C119.494 65.3046 119.454 65.1525 119.375 65.067C119.297 64.9816 119.183 64.9389 119.031 64.9389C118.959 64.9389 118.889 64.9428 118.82 64.9508C118.753 64.959 118.693 64.9816 118.64 65.0191C118.59 65.0537 118.548 65.1085 118.516 65.1831C118.487 65.2579 118.472 65.3633 118.472 65.4994Z" fill="#F46800"/>
<path id="Vector_3" d="M98.5593 12.5947C102.714 22.668 111.281 16.6241 112.955 12.8586C112.955 12.8586 118.79 14.7293 119.591 15.0411C120.392 15.3529 127.088 15.4248 127.088 15.4248C120.296 35.7393 97.3159 24.5389 98.5593 12.5947Z" fill="#142C73"/>
<path id="Vector_4" d="M131.416 15.5791L127.329 12.2993L126.92 15.5791H131.416Z" fill="black"/>
<path id="Vector_5" d="M115.227 26.2656H115.227C115.531 26.2656 115.777 26.5126 115.777 26.8173V31.758C115.777 32.0626 115.531 32.3096 115.227 32.3096C114.924 32.3096 114.677 32.0626 114.677 31.758V26.8173C114.677 26.5126 114.924 26.2656 115.227 26.2656Z" fill="#142C73"/>
<path id="Vector_6" d="M111.449 25.5938H111.449C111.753 25.5938 111.999 25.8407 111.999 26.1454V31.0861C111.999 31.3908 111.753 31.6377 111.449 31.6377C111.145 31.6377 110.899 31.3908 110.899 31.0861V26.1454C110.899 25.8407 111.145 25.5938 111.449 25.5938Z" fill="#142C73"/>
<path id="Vector_7" d="M115.083 29.4773L115.083 29.4773C115.303 29.2666 115.651 29.274 115.861 29.494L117.548 31.2606C117.758 31.4806 117.751 31.8298 117.532 32.0406L117.532 32.0406C117.312 32.2513 116.964 32.2438 116.754 32.0238L115.067 30.2573C114.856 30.0373 114.864 29.6881 115.083 29.4773Z" fill="#142C73"/>
<path id="Vector_8" d="M111.305 28.7097L111.305 28.7097C111.524 28.499 111.872 28.5065 112.083 28.7265L113.77 30.4931C113.98 30.7131 113.973 31.0622 113.753 31.273L113.753 31.273C113.534 31.4838 113.186 31.4763 112.976 31.2563L111.288 29.4897C111.078 29.2697 111.086 28.9205 111.305 28.7097Z" fill="#142C73"/>
<path id="Vector_9" d="M115.362 29.4607L115.362 29.4607C115.585 29.6685 115.597 30.0175 115.39 30.2404L113.726 32.0295C113.519 32.2523 113.171 32.2645 112.949 32.0567L112.949 32.0567C112.727 31.849 112.714 31.4999 112.922 31.2771L114.585 29.4879C114.792 29.2651 115.14 29.2529 115.362 29.4607Z" fill="#142C73"/>
<path id="Vector_10" d="M111.584 28.6931L111.584 28.6931C111.806 28.9009 111.818 29.25 111.611 29.4728L109.672 31.5583C109.465 31.7811 109.117 31.7933 108.895 31.5855L108.895 31.5855C108.673 31.3777 108.661 31.0287 108.868 30.8059L110.807 28.7203C111.014 28.4975 111.362 28.4853 111.584 28.6931Z" fill="#142C73"/>
<path id="Vector_11" d="M120.32 19.8375C116.213 19.8375 112.883 16.498 112.883 12.3785C112.883 8.25896 116.213 4.91943 120.32 4.91943C124.427 4.91943 127.757 8.25896 127.757 12.3785C127.757 16.498 124.427 19.8375 120.32 19.8375Z" fill="#142C73"/>
<path id="Vector_12" d="M122.305 12.4985C121.922 12.4985 121.611 12.1871 121.611 11.803C121.611 11.4188 121.922 11.1074 122.305 11.1074C122.688 11.1074 122.998 11.4188 122.998 11.803C122.998 12.1871 122.688 12.4985 122.305 12.4985Z" fill="white"/>
<path id="Vector_13" d="M130.692 14.8521L131.871 21.8308C131.934 22.2061 131.646 22.5484 131.266 22.5484H128.909C128.53 22.5484 128.241 22.2061 128.305 21.8308L129.483 14.8521C129.598 14.1691 130.577 14.1691 130.692 14.8521Z" stroke="#F46800"/>
<path id="Vector_14" d="M126.371 23.4028C126.545 22.6622 127.204 22.1387 127.963 22.1387H132.266C133.015 22.1387 133.668 22.6491 133.851 23.3776L135.604 30.3471C135.864 31.3829 135.083 32.388 134.018 32.388H126.327C125.273 32.388 124.494 31.4018 124.736 30.3724L126.371 23.4028Z" fill="#F46800"/>
</g>
</svg>
