<svg width="330" height="136" viewBox="0 0 330 136" fill="none" xmlns="http://www.w3.org/2000/svg">
<path d="M17.5253 88.72V89.904H14.3413V100H12.8853V89.904H9.70131V88.72H17.5253ZM23.5967 91.072C24.6207 91.072 25.4474 91.4027 26.0767 92.064C26.706 92.7147 27.0207 93.6587 27.0207 94.896V100H25.5647V95.024C25.5647 94.1493 25.3407 93.4773 24.8927 93.008C24.4447 92.5387 23.8367 92.304 23.0687 92.304C22.2687 92.304 21.6287 92.5653 21.1487 93.088C20.6687 93.6 20.4287 94.352 20.4287 95.344V100H18.9727V88.16H20.4287V93.296C20.6527 92.5813 21.0474 92.032 21.6127 91.648C22.1887 91.264 22.85 91.072 23.5967 91.072ZM37.3339 95.12C37.3339 95.4293 37.3126 95.696 37.2699 95.92H30.2459C30.2779 96.9227 30.5606 97.6747 31.0939 98.176C31.6379 98.6773 32.2993 98.928 33.0779 98.928C33.7819 98.928 34.3686 98.752 34.8379 98.4C35.3179 98.0373 35.6113 97.5573 35.7179 96.96H37.2699C37.1633 97.568 36.9233 98.112 36.5499 98.592C36.1873 99.072 35.7126 99.4453 35.1259 99.712C34.5393 99.9787 33.8779 100.112 33.1419 100.112C32.2993 100.112 31.5526 99.9307 30.9019 99.568C30.2513 99.2053 29.7393 98.688 29.3659 98.016C29.0033 97.3333 28.8219 96.5333 28.8219 95.616C28.8219 94.6987 29.0033 93.8987 29.3659 93.216C29.7393 92.5333 30.2513 92.0107 30.9019 91.648C31.5526 91.2853 32.2993 91.104 33.1419 91.104C33.9953 91.104 34.7366 91.2853 35.3659 91.648C36.0059 92.0107 36.4913 92.496 36.8219 93.104C37.1633 93.712 37.3339 94.384 37.3339 95.12ZM35.8619 95.216C35.8939 94.5653 35.7873 94.0213 35.5419 93.584C35.2966 93.1467 34.9606 92.8213 34.5339 92.608C34.1073 92.3947 33.6433 92.288 33.1419 92.288C32.3419 92.288 31.6699 92.5387 31.1259 93.04C30.5819 93.5307 30.2886 94.256 30.2459 95.216H35.8619ZM39.8463 91.216L42.6943 98.128L45.3343 91.216H46.9503L41.7343 104.16H40.0863L41.9103 99.856L38.2143 91.216H39.8463ZM60.0463 91.216V100H58.5903V97.936C58.3663 98.6507 57.9663 99.2 57.3903 99.584C56.825 99.9573 56.1636 100.144 55.4063 100.144C54.393 100.144 53.5716 99.8187 52.9423 99.168C52.313 98.5067 51.9983 97.5627 51.9983 96.336V91.216H53.4543V96.192C53.4543 97.0667 53.6783 97.744 54.1263 98.224C54.5743 98.6933 55.1823 98.928 55.9503 98.928C56.7503 98.928 57.3903 98.672 57.8703 98.16C58.3503 97.6373 58.5903 96.88 58.5903 95.888V91.216H60.0463ZM67.2269 91.104C68.0056 91.104 68.6989 91.2853 69.3069 91.648C69.9149 92.0107 70.3896 92.5333 70.7309 93.216C71.0829 93.8987 71.2589 94.6987 71.2589 95.616C71.2589 96.5333 71.0829 97.3333 70.7309 98.016C70.3896 98.688 69.9149 99.2053 69.3069 99.568C68.6989 99.9307 68.0056 100.112 67.2269 100.112C66.3736 100.112 65.6483 99.8987 65.0509 99.472C64.4643 99.0347 64.0589 98.464 63.8349 97.76V104.16H62.3789V91.216H63.8349V93.456C64.0589 92.752 64.4643 92.1867 65.0509 91.76C65.6483 91.3227 66.3736 91.104 67.2269 91.104ZM66.8109 92.4C66.2456 92.4 65.7336 92.5333 65.2749 92.8C64.8163 93.056 64.4589 93.4293 64.2029 93.92C63.9469 94.4107 63.8189 94.976 63.8189 95.616C63.8189 96.256 63.9469 96.8213 64.2029 97.312C64.4589 97.792 64.8163 98.1653 65.2749 98.432C65.7336 98.6987 66.2456 98.832 66.8109 98.832C67.7176 98.832 68.4376 98.5493 68.9709 97.984C69.5149 97.408 69.7869 96.6187 69.7869 95.616C69.7869 94.6133 69.5149 93.8293 68.9709 93.264C68.4376 92.688 67.7176 92.4 66.8109 92.4ZM74.6162 88.16V100H73.1602V88.16H74.6162ZM80.9411 91.104C81.7837 91.104 82.5357 91.2853 83.1971 91.648C83.8691 92.0107 84.3917 92.5333 84.7651 93.216C85.1491 93.8987 85.3411 94.6987 85.3411 95.616C85.3411 96.5333 85.1491 97.3333 84.7651 98.016C84.3917 98.688 83.8691 99.2053 83.1971 99.568C82.5357 99.9307 81.7837 100.112 80.9411 100.112C80.0984 100.112 79.3411 99.9307 78.6691 99.568C78.0077 99.2053 77.4851 98.688 77.1011 98.016C76.7171 97.3333 76.5251 96.5333 76.5251 95.616C76.5251 94.6987 76.7171 93.8987 77.1011 93.216C77.4851 92.5333 78.0077 92.0107 78.6691 91.648C79.3411 91.2853 80.0984 91.104 80.9411 91.104ZM80.9411 92.384C80.4184 92.384 79.9331 92.5013 79.4851 92.736C79.0477 92.9707 78.6904 93.3333 78.4131 93.824C78.1464 94.304 78.0131 94.9013 78.0131 95.616C78.0131 96.32 78.1464 96.9173 78.4131 97.408C78.6904 97.888 79.0477 98.2453 79.4851 98.48C79.9331 98.7147 80.4184 98.832 80.9411 98.832C81.4637 98.832 81.9437 98.7147 82.3811 98.48C82.8291 98.2453 83.1864 97.888 83.4531 97.408C83.7304 96.9173 83.8691 96.32 83.8691 95.616C83.8691 94.9013 83.7304 94.304 83.4531 93.824C83.1864 93.3333 82.8291 92.9707 82.3811 92.736C81.9437 92.5013 81.4637 92.384 80.9411 92.384ZM90.8383 91.104C91.6916 91.104 92.4116 91.3173 92.9983 91.744C93.5956 92.1707 94.0116 92.7413 94.2463 93.456V91.216H95.7023V100H94.2463V97.76C94.0116 98.4747 93.5956 99.0453 92.9983 99.472C92.4116 99.8987 91.6916 100.112 90.8383 100.112C90.0596 100.112 89.3663 99.9307 88.7583 99.568C88.1503 99.2053 87.6703 98.688 87.3183 98.016C86.977 97.3333 86.8063 96.5333 86.8063 95.616C86.8063 94.6987 86.977 93.8987 87.3183 93.216C87.6703 92.5333 88.1503 92.0107 88.7583 91.648C89.3663 91.2853 90.0596 91.104 90.8383 91.104ZM91.2543 92.4C90.3583 92.4 89.6383 92.688 89.0943 93.264C88.561 93.8293 88.2943 94.6133 88.2943 95.616C88.2943 96.6187 88.561 97.408 89.0943 97.984C89.6383 98.5493 90.3583 98.832 91.2543 98.832C91.8303 98.832 92.3423 98.6987 92.7903 98.432C93.249 98.1653 93.6063 97.792 93.8623 97.312C94.1183 96.8213 94.2463 96.256 94.2463 95.616C94.2463 94.976 94.1183 94.4107 93.8623 93.92C93.6063 93.4293 93.249 93.056 92.7903 92.8C92.3423 92.5333 91.8303 92.4 91.2543 92.4ZM101.62 91.104C102.473 91.104 103.193 91.3173 103.78 91.744C104.377 92.1707 104.793 92.7413 105.028 93.456V88.16H106.484V100H105.028V97.76C104.793 98.4747 104.377 99.0453 103.78 99.472C103.193 99.8987 102.473 100.112 101.62 100.112C100.841 100.112 100.148 99.9307 99.5396 99.568C98.9316 99.2053 98.4516 98.688 98.0996 98.016C97.7582 97.3333 97.5876 96.5333 97.5876 95.616C97.5876 94.6987 97.7582 93.8987 98.0996 93.216C98.4516 92.5333 98.9316 92.0107 99.5396 91.648C100.148 91.2853 100.841 91.104 101.62 91.104ZM102.036 92.4C101.14 92.4 100.42 92.688 99.8756 93.264C99.3422 93.8293 99.0756 94.6133 99.0756 95.616C99.0756 96.6187 99.3422 97.408 99.8756 97.984C100.42 98.5493 101.14 98.832 102.036 98.832C102.612 98.832 103.124 98.6987 103.572 98.432C104.03 98.1653 104.388 97.792 104.644 97.312C104.9 96.8213 105.028 96.256 105.028 95.616C105.028 94.976 104.9 94.4107 104.644 93.92C104.388 93.4293 104.03 93.056 103.572 92.8C103.124 92.5333 102.612 92.4 102.036 92.4ZM116.946 98.72V100H115.858C114.962 100 114.29 99.7867 113.842 99.36C113.405 98.9333 113.186 98.2187 113.186 97.216V92.48H111.874V91.216H113.186V89.024H114.658V91.216H116.93V92.48H114.658V97.248C114.658 97.8133 114.759 98.2027 114.962 98.416C115.175 98.6187 115.538 98.72 116.05 98.72H116.946ZM123.347 91.072C124.371 91.072 125.197 91.4027 125.827 92.064C126.456 92.7147 126.771 93.6587 126.771 94.896V100H125.315V95.024C125.315 94.1493 125.091 93.4773 124.643 93.008C124.195 92.5387 123.587 92.304 122.819 92.304C122.019 92.304 121.379 92.5653 120.899 93.088C120.419 93.6 120.179 94.352 120.179 95.344V100H118.723V88.16H120.179V93.296C120.403 92.5813 120.797 92.032 121.363 91.648C121.939 91.264 122.6 91.072 123.347 91.072ZM137.084 95.12C137.084 95.4293 137.063 95.696 137.02 95.92H129.996C130.028 96.9227 130.311 97.6747 130.844 98.176C131.388 98.6773 132.049 98.928 132.828 98.928C133.532 98.928 134.119 98.752 134.588 98.4C135.068 98.0373 135.361 97.5573 135.468 96.96H137.02C136.913 97.568 136.673 98.112 136.3 98.592C135.937 99.072 135.463 99.4453 134.876 99.712C134.289 99.9787 133.628 100.112 132.892 100.112C132.049 100.112 131.303 99.9307 130.652 99.568C130.001 99.2053 129.489 98.688 129.116 98.016C128.753 97.3333 128.572 96.5333 128.572 95.616C128.572 94.6987 128.753 93.8987 129.116 93.216C129.489 92.5333 130.001 92.0107 130.652 91.648C131.303 91.2853 132.049 91.104 132.892 91.104C133.745 91.104 134.487 91.2853 135.116 91.648C135.756 92.0107 136.241 92.496 136.572 93.104C136.913 93.712 137.084 94.384 137.084 95.12ZM135.612 95.216C135.644 94.5653 135.537 94.0213 135.292 93.584C135.047 93.1467 134.711 92.8213 134.284 92.608C133.857 92.3947 133.393 92.288 132.892 92.288C132.092 92.288 131.42 92.5387 130.876 93.04C130.332 93.5307 130.039 94.256 129.996 95.216H135.612ZM147.565 91.072C148.589 91.072 149.416 91.4027 150.045 92.064C150.675 92.7147 150.989 93.6587 150.989 94.896V100H149.533V95.024C149.533 94.1493 149.309 93.4773 148.861 93.008C148.413 92.5387 147.805 92.304 147.037 92.304C146.237 92.304 145.597 92.5653 145.117 93.088C144.637 93.6 144.397 94.352 144.397 95.344V100H142.941V91.216H144.397V93.296C144.621 92.5813 145.016 92.032 145.581 91.648C146.157 91.264 146.819 91.072 147.565 91.072ZM156.823 91.104C157.676 91.104 158.396 91.3173 158.983 91.744C159.58 92.1707 159.996 92.7413 160.231 93.456V91.216H161.687V100H160.231V97.76C159.996 98.4747 159.58 99.0453 158.983 99.472C158.396 99.8987 157.676 100.112 156.823 100.112C156.044 100.112 155.351 99.9307 154.743 99.568C154.135 99.2053 153.655 98.688 153.303 98.016C152.961 97.3333 152.791 96.5333 152.791 95.616C152.791 94.6987 152.961 93.8987 153.303 93.216C153.655 92.5333 154.135 92.0107 154.743 91.648C155.351 91.2853 156.044 91.104 156.823 91.104ZM157.239 92.4C156.343 92.4 155.623 92.688 155.079 93.264C154.545 93.8293 154.279 94.6133 154.279 95.616C154.279 96.6187 154.545 97.408 155.079 97.984C155.623 98.5493 156.343 98.832 157.239 98.832C157.815 98.832 158.327 98.6987 158.775 98.432C159.233 98.1653 159.591 97.792 159.847 97.312C160.103 96.8213 160.231 96.256 160.231 95.616C160.231 94.976 160.103 94.4107 159.847 93.92C159.591 93.4293 159.233 93.056 158.775 92.8C158.327 92.5333 157.815 92.4 157.239 92.4ZM174.804 91.072C175.828 91.072 176.649 91.4027 177.268 92.064C177.897 92.7147 178.212 93.6587 178.212 94.896V100H176.756V95.024C176.756 94.16 176.543 93.4987 176.116 93.04C175.7 92.5813 175.124 92.352 174.388 92.352C173.62 92.352 173.001 92.608 172.532 93.12C172.073 93.6213 171.844 94.3627 171.844 95.344V100H170.388V95.024C170.388 94.16 170.175 93.4987 169.748 93.04C169.321 92.5813 168.745 92.352 168.02 92.352C167.241 92.352 166.617 92.608 166.148 93.12C165.689 93.6213 165.46 94.3627 165.46 95.344V100H164.004V91.216H165.46V93.216C165.673 92.5227 166.052 91.9947 166.596 91.632C167.151 91.2587 167.785 91.072 168.5 91.072C169.247 91.072 169.892 91.264 170.436 91.648C170.991 92.0213 171.385 92.576 171.62 93.312C171.865 92.5973 172.276 92.048 172.852 91.664C173.428 91.2693 174.079 91.072 174.804 91.072ZM188.553 95.12C188.553 95.4293 188.531 95.696 188.489 95.92H181.465C181.497 96.9227 181.779 97.6747 182.313 98.176C182.857 98.6773 183.518 98.928 184.297 98.928C185.001 98.928 185.587 98.752 186.057 98.4C186.537 98.0373 186.83 97.5573 186.937 96.96H188.489C188.382 97.568 188.142 98.112 187.769 98.592C187.406 99.072 186.931 99.4453 186.345 99.712C185.758 99.9787 185.097 100.112 184.361 100.112C183.518 100.112 182.771 99.9307 182.121 99.568C181.47 99.2053 180.958 98.688 180.585 98.016C180.222 97.3333 180.041 96.5333 180.041 95.616C180.041 94.6987 180.222 93.8987 180.585 93.216C180.958 92.5333 181.47 92.0107 182.121 91.648C182.771 91.2853 183.518 91.104 184.361 91.104C185.214 91.104 185.955 91.2853 186.585 91.648C187.225 92.0107 187.71 92.496 188.041 93.104C188.382 93.712 188.553 94.384 188.553 95.12ZM187.081 95.216C187.113 94.5653 187.006 94.0213 186.761 93.584C186.515 93.1467 186.179 92.8213 185.753 92.608C185.326 92.3947 184.862 92.288 184.361 92.288C183.561 92.288 182.889 92.5387 182.345 93.04C181.801 93.5307 181.507 94.256 181.465 95.216H187.081ZM193.209 91.104C194.201 91.104 194.996 91.3653 195.593 91.888C196.201 92.4 196.569 93.0933 196.697 93.968H195.305C195.241 93.4453 195.022 93.0187 194.649 92.688C194.286 92.3467 193.796 92.176 193.177 92.176C192.654 92.176 192.244 92.304 191.945 92.56C191.657 92.8053 191.513 93.1413 191.513 93.568C191.513 93.888 191.609 94.1493 191.801 94.352C192.004 94.544 192.249 94.6933 192.537 94.8C192.836 94.896 193.241 95.0027 193.753 95.12C194.404 95.2693 194.926 95.424 195.321 95.584C195.726 95.7333 196.068 95.9787 196.345 96.32C196.633 96.6613 196.777 97.12 196.777 97.696C196.777 98.4107 196.505 98.992 195.961 99.44C195.428 99.888 194.713 100.112 193.817 100.112C192.772 100.112 191.918 99.8613 191.257 99.36C190.596 98.8587 190.206 98.16 190.089 97.264H191.497C191.55 97.7973 191.78 98.2293 192.185 98.56C192.601 98.8907 193.145 99.056 193.817 99.056C194.318 99.056 194.708 98.928 194.985 98.672C195.273 98.416 195.417 98.08 195.417 97.664C195.417 97.3227 195.316 97.0507 195.113 96.848C194.91 96.6453 194.66 96.4907 194.361 96.384C194.062 96.2773 193.652 96.1653 193.129 96.048C192.478 95.8987 191.956 95.7493 191.561 95.6C191.177 95.4507 190.846 95.216 190.569 94.896C190.302 94.5653 190.169 94.1227 190.169 93.568C190.169 92.832 190.441 92.24 190.985 91.792C191.529 91.3333 192.27 91.104 193.209 91.104ZM206.276 91.104C207.129 91.104 207.849 91.3173 208.436 91.744C209.033 92.1707 209.449 92.7413 209.684 93.456V91.216H211.14V100H209.684V97.76C209.449 98.4747 209.033 99.0453 208.436 99.472C207.849 99.8987 207.129 100.112 206.276 100.112C205.497 100.112 204.804 99.9307 204.196 99.568C203.588 99.2053 203.108 98.688 202.756 98.016C202.414 97.3333 202.244 96.5333 202.244 95.616C202.244 94.6987 202.414 93.8987 202.756 93.216C203.108 92.5333 203.588 92.0107 204.196 91.648C204.804 91.2853 205.497 91.104 206.276 91.104ZM206.692 92.4C205.796 92.4 205.076 92.688 204.532 93.264C203.998 93.8293 203.732 94.6133 203.732 95.616C203.732 96.6187 203.998 97.408 204.532 97.984C205.076 98.5493 205.796 98.832 206.692 98.832C207.268 98.832 207.78 98.6987 208.228 98.432C208.686 98.1653 209.044 97.792 209.3 97.312C209.556 96.8213 209.684 96.256 209.684 95.616C209.684 94.976 209.556 94.4107 209.3 93.92C209.044 93.4293 208.686 93.056 208.228 92.8C207.78 92.5333 207.268 92.4 206.692 92.4ZM218.081 91.072C219.105 91.072 219.932 91.4027 220.561 92.064C221.19 92.7147 221.505 93.6587 221.505 94.896V100H220.049V95.024C220.049 94.1493 219.825 93.4773 219.377 93.008C218.929 92.5387 218.321 92.304 217.553 92.304C216.753 92.304 216.113 92.5653 215.633 93.088C215.153 93.6 214.913 94.352 214.913 95.344V100H213.457V91.216H214.913V93.296C215.137 92.5813 215.532 92.032 216.097 91.648C216.673 91.264 217.334 91.072 218.081 91.072ZM227.338 91.104C228.192 91.104 228.912 91.3173 229.498 91.744C230.096 92.1707 230.512 92.7413 230.746 93.456V88.16H232.202V100H230.746V97.76C230.512 98.4747 230.096 99.0453 229.498 99.472C228.912 99.8987 228.192 100.112 227.338 100.112C226.56 100.112 225.866 99.9307 225.258 99.568C224.65 99.2053 224.17 98.688 223.818 98.016C223.477 97.3333 223.306 96.5333 223.306 95.616C223.306 94.6987 223.477 93.8987 223.818 93.216C224.17 92.5333 224.65 92.0107 225.258 91.648C225.866 91.2853 226.56 91.104 227.338 91.104ZM227.754 92.4C226.858 92.4 226.138 92.688 225.594 93.264C225.061 93.8293 224.794 94.6133 224.794 95.616C224.794 96.6187 225.061 97.408 225.594 97.984C226.138 98.5493 226.858 98.832 227.754 98.832C228.33 98.832 228.842 98.6987 229.29 98.432C229.749 98.1653 230.106 97.792 230.362 97.312C230.618 96.8213 230.746 96.256 230.746 95.616C230.746 94.976 230.618 94.4107 230.362 93.92C230.106 93.4293 229.749 93.056 229.29 92.8C228.842 92.5333 228.33 92.4 227.754 92.4ZM242.073 91.104C242.926 91.104 243.646 91.3173 244.233 91.744C244.83 92.1707 245.246 92.7413 245.481 93.456V91.216H246.937V100H245.481V97.76C245.246 98.4747 244.83 99.0453 244.233 99.472C243.646 99.8987 242.926 100.112 242.073 100.112C241.294 100.112 240.601 99.9307 239.993 99.568C239.385 99.2053 238.905 98.688 238.553 98.016C238.211 97.3333 238.041 96.5333 238.041 95.616C238.041 94.6987 238.211 93.8987 238.553 93.216C238.905 92.5333 239.385 92.0107 239.993 91.648C240.601 91.2853 241.294 91.104 242.073 91.104ZM242.489 92.4C241.593 92.4 240.873 92.688 240.329 93.264C239.795 93.8293 239.529 94.6133 239.529 95.616C239.529 96.6187 239.795 97.408 240.329 97.984C240.873 98.5493 241.593 98.832 242.489 98.832C243.065 98.832 243.577 98.6987 244.025 98.432C244.483 98.1653 244.841 97.792 245.097 97.312C245.353 96.8213 245.481 96.256 245.481 95.616C245.481 94.976 245.353 94.4107 245.097 93.92C244.841 93.4293 244.483 93.056 244.025 92.8C243.577 92.5333 243.065 92.4 242.489 92.4ZM252.854 91.104C253.707 91.104 254.427 91.3173 255.014 91.744C255.611 92.1707 256.027 92.7413 256.262 93.456V88.16H257.718V100H256.262V97.76C256.027 98.4747 255.611 99.0453 255.014 99.472C254.427 99.8987 253.707 100.112 252.854 100.112C252.075 100.112 251.382 99.9307 250.774 99.568C250.166 99.2053 249.686 98.688 249.334 98.016C248.993 97.3333 248.822 96.5333 248.822 95.616C248.822 94.6987 248.993 93.8987 249.334 93.216C249.686 92.5333 250.166 92.0107 250.774 91.648C251.382 91.2853 252.075 91.104 252.854 91.104ZM253.27 92.4C252.374 92.4 251.654 92.688 251.11 93.264C250.577 93.8293 250.31 94.6133 250.31 95.616C250.31 96.6187 250.577 97.408 251.11 97.984C251.654 98.5493 252.374 98.832 253.27 98.832C253.846 98.832 254.358 98.6987 254.806 98.432C255.265 98.1653 255.622 97.792 255.878 97.312C256.134 96.8213 256.262 96.256 256.262 95.616C256.262 94.976 256.134 94.4107 255.878 93.92C255.622 93.4293 255.265 93.056 254.806 92.8C254.358 92.5333 253.846 92.4 253.27 92.4ZM263.635 91.104C264.489 91.104 265.209 91.3173 265.795 91.744C266.393 92.1707 266.809 92.7413 267.043 93.456V88.16H268.499V100H267.043V97.76C266.809 98.4747 266.393 99.0453 265.795 99.472C265.209 99.8987 264.489 100.112 263.635 100.112C262.857 100.112 262.163 99.9307 261.555 99.568C260.947 99.2053 260.467 98.688 260.115 98.016C259.774 97.3333 259.603 96.5333 259.603 95.616C259.603 94.6987 259.774 93.8987 260.115 93.216C260.467 92.5333 260.947 92.0107 261.555 91.648C262.163 91.2853 262.857 91.104 263.635 91.104ZM264.051 92.4C263.155 92.4 262.435 92.688 261.891 93.264C261.358 93.8293 261.091 94.6133 261.091 95.616C261.091 96.6187 261.358 97.408 261.891 97.984C262.435 98.5493 263.155 98.832 264.051 98.832C264.627 98.832 265.139 98.6987 265.587 98.432C266.046 98.1653 266.403 97.792 266.659 97.312C266.915 96.8213 267.043 96.256 267.043 95.616C267.043 94.976 266.915 94.4107 266.659 93.92C266.403 93.4293 266.046 93.056 265.587 92.8C265.139 92.5333 264.627 92.4 264.051 92.4ZM272.272 92.992C272.56 92.384 272.982 91.9147 273.536 91.584C274.091 91.2427 274.752 91.072 275.52 91.072V92.656H275.072C274.251 92.656 273.579 92.8693 273.056 93.296C272.534 93.712 272.272 94.4053 272.272 95.376V100H270.816V91.216H272.272V92.992ZM285.037 95.12C285.037 95.4293 285.016 95.696 284.973 95.92H277.949C277.981 96.9227 278.264 97.6747 278.797 98.176C279.341 98.6773 280.002 98.928 280.781 98.928C281.485 98.928 282.072 98.752 282.541 98.4C283.021 98.0373 283.314 97.5573 283.421 96.96H284.973C284.866 97.568 284.626 98.112 284.253 98.592C283.89 99.072 283.416 99.4453 282.829 99.712C282.242 99.9787 281.581 100.112 280.845 100.112C280.002 100.112 279.256 99.9307 278.605 99.568C277.954 99.2053 277.442 98.688 277.069 98.016C276.706 97.3333 276.525 96.5333 276.525 95.616C276.525 94.6987 276.706 93.8987 277.069 93.216C277.442 92.5333 277.954 92.0107 278.605 91.648C279.256 91.2853 280.002 91.104 280.845 91.104C281.698 91.104 282.44 91.2853 283.069 91.648C283.709 92.0107 284.194 92.496 284.525 93.104C284.866 93.712 285.037 94.384 285.037 95.12ZM283.565 95.216C283.597 94.5653 283.49 94.0213 283.245 93.584C283 93.1467 282.664 92.8213 282.237 92.608C281.81 92.3947 281.346 92.288 280.845 92.288C280.045 92.288 279.373 92.5387 278.829 93.04C278.285 93.5307 277.992 94.256 277.949 95.216H283.565ZM289.693 91.104C290.685 91.104 291.48 91.3653 292.077 91.888C292.685 92.4 293.053 93.0933 293.181 93.968H291.789C291.725 93.4453 291.507 93.0187 291.133 92.688C290.771 92.3467 290.28 92.176 289.661 92.176C289.139 92.176 288.728 92.304 288.429 92.56C288.141 92.8053 287.997 93.1413 287.997 93.568C287.997 93.888 288.093 94.1493 288.285 94.352C288.488 94.544 288.733 94.6933 289.021 94.8C289.32 94.896 289.725 95.0027 290.237 95.12C290.888 95.2693 291.411 95.424 291.805 95.584C292.211 95.7333 292.552 95.9787 292.829 96.32C293.117 96.6613 293.261 97.12 293.261 97.696C293.261 98.4107 292.989 98.992 292.445 99.44C291.912 99.888 291.197 100.112 290.301 100.112C289.256 100.112 288.403 99.8613 287.741 99.36C287.08 98.8587 286.691 98.16 286.573 97.264H287.981C288.035 97.7973 288.264 98.2293 288.669 98.56C289.085 98.8907 289.629 99.056 290.301 99.056C290.803 99.056 291.192 98.928 291.469 98.672C291.757 98.416 291.901 98.08 291.901 97.664C291.901 97.3227 291.8 97.0507 291.597 96.848C291.395 96.6453 291.144 96.4907 290.845 96.384C290.547 96.2773 290.136 96.1653 289.613 96.048C288.963 95.8987 288.44 95.7493 288.045 95.6C287.661 95.4507 287.331 95.216 287.053 94.896C286.787 94.5653 286.653 94.1227 286.653 93.568C286.653 92.832 286.925 92.24 287.469 91.792C288.013 91.3333 288.755 91.104 289.693 91.104ZM297.959 91.104C298.951 91.104 299.746 91.3653 300.343 91.888C300.951 92.4 301.319 93.0933 301.447 93.968H300.055C299.991 93.4453 299.772 93.0187 299.399 92.688C299.036 92.3467 298.546 92.176 297.927 92.176C297.404 92.176 296.994 92.304 296.695 92.56C296.407 92.8053 296.263 93.1413 296.263 93.568C296.263 93.888 296.359 94.1493 296.551 94.352C296.754 94.544 296.999 94.6933 297.287 94.8C297.586 94.896 297.991 95.0027 298.503 95.12C299.154 95.2693 299.676 95.424 300.071 95.584C300.476 95.7333 300.818 95.9787 301.095 96.32C301.383 96.6613 301.527 97.12 301.527 97.696C301.527 98.4107 301.255 98.992 300.711 99.44C300.178 99.888 299.463 100.112 298.567 100.112C297.522 100.112 296.668 99.8613 296.007 99.36C295.346 98.8587 294.956 98.16 294.839 97.264H296.247C296.3 97.7973 296.53 98.2293 296.935 98.56C297.351 98.8907 297.895 99.056 298.567 99.056C299.068 99.056 299.458 98.928 299.735 98.672C300.023 98.416 300.167 98.08 300.167 97.664C300.167 97.3227 300.066 97.0507 299.863 96.848C299.66 96.6453 299.41 96.4907 299.111 96.384C298.812 96.2773 298.402 96.1653 297.879 96.048C297.228 95.8987 296.706 95.7493 296.311 95.6C295.927 95.4507 295.596 95.216 295.319 94.896C295.052 94.5653 294.919 94.1227 294.919 93.568C294.919 92.832 295.191 92.24 295.735 91.792C296.279 91.3333 297.02 91.104 297.959 91.104ZM311.553 95.12C311.553 95.4293 311.531 95.696 311.489 95.92H304.465C304.497 96.9227 304.779 97.6747 305.313 98.176C305.857 98.6773 306.518 98.928 307.297 98.928C308.001 98.928 308.587 98.752 309.057 98.4C309.537 98.0373 309.83 97.5573 309.937 96.96H311.489C311.382 97.568 311.142 98.112 310.769 98.592C310.406 99.072 309.931 99.4453 309.345 99.712C308.758 99.9787 308.097 100.112 307.361 100.112C306.518 100.112 305.771 99.9307 305.121 99.568C304.47 99.2053 303.958 98.688 303.585 98.016C303.222 97.3333 303.041 96.5333 303.041 95.616C303.041 94.6987 303.222 93.8987 303.585 93.216C303.958 92.5333 304.47 92.0107 305.121 91.648C305.771 91.2853 306.518 91.104 307.361 91.104C308.214 91.104 308.955 91.2853 309.585 91.648C310.225 92.0107 310.71 92.496 311.041 93.104C311.382 93.712 311.553 94.384 311.553 95.12ZM310.081 95.216C310.113 94.5653 310.006 94.0213 309.761 93.584C309.515 93.1467 309.179 92.8213 308.753 92.608C308.326 92.3947 307.862 92.288 307.361 92.288C306.561 92.288 305.889 92.5387 305.345 93.04C304.801 93.5307 304.507 94.256 304.465 95.216H310.081ZM316.209 91.104C317.201 91.104 317.996 91.3653 318.593 91.888C319.201 92.4 319.569 93.0933 319.697 93.968H318.305C318.241 93.4453 318.022 93.0187 317.649 92.688C317.286 92.3467 316.796 92.176 316.177 92.176C315.654 92.176 315.244 92.304 314.945 92.56C314.657 92.8053 314.513 93.1413 314.513 93.568C314.513 93.888 314.609 94.1493 314.801 94.352C315.004 94.544 315.249 94.6933 315.537 94.8C315.836 94.896 316.241 95.0027 316.753 95.12C317.404 95.2693 317.926 95.424 318.321 95.584C318.726 95.7333 319.068 95.9787 319.345 96.32C319.633 96.6613 319.777 97.12 319.777 97.696C319.777 98.4107 319.505 98.992 318.961 99.44C318.428 99.888 317.713 100.112 316.817 100.112C315.772 100.112 314.918 99.8613 314.257 99.36C313.596 98.8587 313.206 98.16 313.089 97.264H314.497C314.55 97.7973 314.78 98.2293 315.185 98.56C315.601 98.8907 316.145 99.056 316.817 99.056C317.318 99.056 317.708 98.928 317.985 98.672C318.273 98.416 318.417 98.08 318.417 97.664C318.417 97.3227 318.316 97.0507 318.113 96.848C317.91 96.6453 317.66 96.4907 317.361 96.384C317.062 96.2773 316.652 96.1653 316.129 96.048C315.478 95.8987 314.956 95.7493 314.561 95.6C314.177 95.4507 313.846 95.216 313.569 94.896C313.302 94.5653 313.169 94.1227 313.169 93.568C313.169 92.832 313.441 92.24 313.985 91.792C314.529 91.3333 315.27 91.104 316.209 91.104ZM9.09731 119.104C9.93998 119.104 10.692 119.285 11.3533 119.648C12.0253 120.011 12.548 120.533 12.9213 121.216C13.3053 121.899 13.4973 122.699 13.4973 123.616C13.4973 124.533 13.3053 125.333 12.9213 126.016C12.548 126.688 12.0253 127.205 11.3533 127.568C10.692 127.931 9.93998 128.112 9.09731 128.112C8.25465 128.112 7.49731 127.931 6.82531 127.568C6.16398 127.205 5.64131 126.688 5.25731 126.016C4.87331 125.333 4.68131 124.533 4.68131 123.616C4.68131 122.699 4.87331 121.899 5.25731 121.216C5.64131 120.533 6.16398 120.011 6.82531 119.648C7.49731 119.285 8.25465 119.104 9.09731 119.104ZM9.09731 120.384C8.57465 120.384 8.08931 120.501 7.64131 120.736C7.20398 120.971 6.84665 121.333 6.56931 121.824C6.30265 122.304 6.16931 122.901 6.16931 123.616C6.16931 124.32 6.30265 124.917 6.56931 125.408C6.84665 125.888 7.20398 126.245 7.64131 126.48C8.08931 126.715 8.57465 126.832 9.09731 126.832C9.61998 126.832 10.1 126.715 10.5373 126.48C10.9853 126.245 11.3426 125.888 11.6093 125.408C11.8866 124.917 12.0253 124.32 12.0253 123.616C12.0253 122.901 11.8866 122.304 11.6093 121.824C11.3426 121.333 10.9853 120.971 10.5373 120.736C10.1 120.501 9.61998 120.384 9.09731 120.384ZM19.2826 117.136C18.5039 117.125 17.9599 117.259 17.6506 117.536C17.3519 117.813 17.2026 118.293 17.2026 118.976V119.216H19.2826V120.496H17.2026V128H15.7466V120.496H14.4826V119.216H15.7466V118.864C15.7466 116.763 16.9252 115.76 19.2826 115.856V117.136ZM29.0084 126.72V128H27.9204C27.0244 128 26.3524 127.787 25.9044 127.36C25.4671 126.933 25.2484 126.219 25.2484 125.216V120.48H23.9364V119.216H25.2484V117.024H26.7204V119.216H28.9924V120.48H26.7204V125.248C26.7204 125.813 26.8218 126.203 27.0244 126.416C27.2378 126.619 27.6004 126.72 28.1124 126.72H29.0084ZM35.4092 119.072C36.4332 119.072 37.2599 119.403 37.8892 120.064C38.5185 120.715 38.8332 121.659 38.8332 122.896V128H37.3772V123.024C37.3772 122.149 37.1532 121.477 36.7052 121.008C36.2572 120.539 35.6492 120.304 34.8812 120.304C34.0812 120.304 33.4412 120.565 32.9612 121.088C32.4812 121.6 32.2412 122.352 32.2412 123.344V128H30.7852V116.16H32.2412V121.296C32.4652 120.581 32.8599 120.032 33.4252 119.648C34.0012 119.264 34.6625 119.072 35.4092 119.072ZM49.1464 123.12C49.1464 123.429 49.1251 123.696 49.0824 123.92H42.0584C42.0904 124.923 42.3731 125.675 42.9064 126.176C43.4504 126.677 44.1118 126.928 44.8904 126.928C45.5944 126.928 46.1811 126.752 46.6504 126.4C47.1304 126.037 47.4238 125.557 47.5304 124.96H49.0824C48.9758 125.568 48.7358 126.112 48.3624 126.592C47.9998 127.072 47.5251 127.445 46.9384 127.712C46.3518 127.979 45.6904 128.112 44.9544 128.112C44.1118 128.112 43.3651 127.931 42.7144 127.568C42.0638 127.205 41.5518 126.688 41.1784 126.016C40.8158 125.333 40.6344 124.533 40.6344 123.616C40.6344 122.699 40.8158 121.899 41.1784 121.216C41.5518 120.533 42.0638 120.011 42.7144 119.648C43.3651 119.285 44.1118 119.104 44.9544 119.104C45.8078 119.104 46.5491 119.285 47.1784 119.648C47.8184 120.011 48.3038 120.496 48.6344 121.104C48.9758 121.712 49.1464 122.384 49.1464 123.12ZM47.6744 123.216C47.7064 122.565 47.5998 122.021 47.3544 121.584C47.1091 121.147 46.7731 120.821 46.3464 120.608C45.9198 120.395 45.4558 120.288 44.9544 120.288C44.1544 120.288 43.4824 120.539 42.9384 121.04C42.3944 121.531 42.1011 122.256 42.0584 123.216H47.6744ZM59.8519 119.104C60.6306 119.104 61.3239 119.285 61.9319 119.648C62.5399 120.011 63.0146 120.533 63.3559 121.216C63.7079 121.899 63.8839 122.699 63.8839 123.616C63.8839 124.533 63.7079 125.333 63.3559 126.016C63.0146 126.688 62.5399 127.205 61.9319 127.568C61.3239 127.931 60.6306 128.112 59.8519 128.112C58.9986 128.112 58.2733 127.899 57.6759 127.472C57.0893 127.035 56.6839 126.464 56.4599 125.76V132.16H55.0039V119.216H56.4599V121.456C56.6839 120.752 57.0893 120.187 57.6759 119.76C58.2733 119.323 58.9986 119.104 59.8519 119.104ZM59.4359 120.4C58.8706 120.4 58.3586 120.533 57.8999 120.8C57.4413 121.056 57.0839 121.429 56.8279 121.92C56.5719 122.411 56.4439 122.976 56.4439 123.616C56.4439 124.256 56.5719 124.821 56.8279 125.312C57.0839 125.792 57.4413 126.165 57.8999 126.432C58.3586 126.699 58.8706 126.832 59.4359 126.832C60.3426 126.832 61.0626 126.549 61.5959 125.984C62.1399 125.408 62.4119 124.619 62.4119 123.616C62.4119 122.613 62.1399 121.829 61.5959 121.264C61.0626 120.688 60.3426 120.4 59.4359 120.4ZM73.8652 123.12C73.8652 123.429 73.8439 123.696 73.8012 123.92H66.7772C66.8092 124.923 67.0919 125.675 67.6252 126.176C68.1692 126.677 68.8305 126.928 69.6092 126.928C70.3132 126.928 70.8999 126.752 71.3692 126.4C71.8492 126.037 72.1425 125.557 72.2492 124.96H73.8012C73.6945 125.568 73.4545 126.112 73.0812 126.592C72.7185 127.072 72.2439 127.445 71.6572 127.712C71.0705 127.979 70.4092 128.112 69.6732 128.112C68.8305 128.112 68.0839 127.931 67.4332 127.568C66.7825 127.205 66.2705 126.688 65.8972 126.016C65.5345 125.333 65.3532 124.533 65.3532 123.616C65.3532 122.699 65.5345 121.899 65.8972 121.216C66.2705 120.533 66.7825 120.011 67.4332 119.648C68.0839 119.285 68.8305 119.104 69.6732 119.104C70.5265 119.104 71.2679 119.285 71.8972 119.648C72.5372 120.011 73.0225 120.496 73.3532 121.104C73.6945 121.712 73.8652 122.384 73.8652 123.12ZM72.3932 123.216C72.4252 122.565 72.3185 122.021 72.0732 121.584C71.8279 121.147 71.4919 120.821 71.0652 120.608C70.6385 120.395 70.1745 120.288 69.6732 120.288C68.8732 120.288 68.2012 120.539 67.6572 121.04C67.1132 121.531 66.8199 122.256 66.7772 123.216H72.3932ZM79.7536 119.104C80.5962 119.104 81.3482 119.285 82.0096 119.648C82.6816 120.011 83.2042 120.533 83.5776 121.216C83.9616 121.899 84.1536 122.699 84.1536 123.616C84.1536 124.533 83.9616 125.333 83.5776 126.016C83.2042 126.688 82.6816 127.205 82.0096 127.568C81.3482 127.931 80.5962 128.112 79.7536 128.112C78.9109 128.112 78.1536 127.931 77.4816 127.568C76.8202 127.205 76.2976 126.688 75.9136 126.016C75.5296 125.333 75.3376 124.533 75.3376 123.616C75.3376 122.699 75.5296 121.899 75.9136 121.216C76.2976 120.533 76.8202 120.011 77.4816 119.648C78.1536 119.285 78.9109 119.104 79.7536 119.104ZM79.7536 120.384C79.2309 120.384 78.7456 120.501 78.2976 120.736C77.8602 120.971 77.5029 121.333 77.2256 121.824C76.9589 122.304 76.8256 122.901 76.8256 123.616C76.8256 124.32 76.9589 124.917 77.2256 125.408C77.5029 125.888 77.8602 126.245 78.2976 126.48C78.7456 126.715 79.2309 126.832 79.7536 126.832C80.2762 126.832 80.7562 126.715 81.1936 126.48C81.6416 126.245 81.9989 125.888 82.2656 125.408C82.5429 124.917 82.6816 124.32 82.6816 123.616C82.6816 122.901 82.5429 122.304 82.2656 121.824C81.9989 121.333 81.6416 120.971 81.1936 120.736C80.7562 120.501 80.2762 120.384 79.7536 120.384ZM90.8988 119.104C91.6775 119.104 92.3708 119.285 92.9788 119.648C93.5868 120.011 94.0615 120.533 94.4028 121.216C94.7548 121.899 94.9308 122.699 94.9308 123.616C94.9308 124.533 94.7548 125.333 94.4028 126.016C94.0615 126.688 93.5868 127.205 92.9788 127.568C92.3708 127.931 91.6775 128.112 90.8988 128.112C90.0455 128.112 89.3201 127.899 88.7228 127.472C88.1361 127.035 87.7308 126.464 87.5068 125.76V132.16H86.0508V119.216H87.5068V121.456C87.7308 120.752 88.1361 120.187 88.7228 119.76C89.3201 119.323 90.0455 119.104 90.8988 119.104ZM90.4828 120.4C89.9175 120.4 89.4055 120.533 88.9468 120.8C88.4881 121.056 88.1308 121.429 87.8748 121.92C87.6188 122.411 87.4908 122.976 87.4908 123.616C87.4908 124.256 87.6188 124.821 87.8748 125.312C88.1308 125.792 88.4881 126.165 88.9468 126.432C89.4055 126.699 89.9175 126.832 90.4828 126.832C91.3895 126.832 92.1095 126.549 92.6428 125.984C93.1868 125.408 93.4588 124.619 93.4588 123.616C93.4588 122.613 93.1868 121.829 92.6428 121.264C92.1095 120.688 91.3895 120.4 90.4828 120.4ZM98.2881 116.16V128H96.8321V116.16H98.2881ZM108.709 123.12C108.709 123.429 108.688 123.696 108.645 123.92H101.621C101.653 124.923 101.936 125.675 102.469 126.176C103.013 126.677 103.674 126.928 104.453 126.928C105.157 126.928 105.744 126.752 106.213 126.4C106.693 126.037 106.986 125.557 107.093 124.96H108.645C108.538 125.568 108.298 126.112 107.925 126.592C107.562 127.072 107.088 127.445 106.501 127.712C105.914 127.979 105.253 128.112 104.517 128.112C103.674 128.112 102.928 127.931 102.277 127.568C101.626 127.205 101.114 126.688 100.741 126.016C100.378 125.333 100.197 124.533 100.197 123.616C100.197 122.699 100.378 121.899 100.741 121.216C101.114 120.533 101.626 120.011 102.277 119.648C102.928 119.285 103.674 119.104 104.517 119.104C105.37 119.104 106.112 119.285 106.741 119.648C107.381 120.011 107.866 120.496 108.197 121.104C108.538 121.712 108.709 122.384 108.709 123.12ZM107.237 123.216C107.269 122.565 107.162 122.021 106.917 121.584C106.672 121.147 106.336 120.821 105.909 120.608C105.482 120.395 105.018 120.288 104.517 120.288C103.717 120.288 103.045 120.539 102.501 121.04C101.957 121.531 101.664 122.256 101.621 123.216H107.237ZM118.758 126.72V128H117.67C116.774 128 116.102 127.787 115.654 127.36C115.217 126.933 114.998 126.219 114.998 125.216V120.48H113.686V119.216H114.998V117.024H116.47V119.216H118.742V120.48H116.47V125.248C116.47 125.813 116.572 126.203 116.774 126.416C116.988 126.619 117.35 126.72 117.862 126.72H118.758ZM125.159 119.072C126.183 119.072 127.01 119.403 127.639 120.064C128.269 120.715 128.583 121.659 128.583 122.896V128H127.127V123.024C127.127 122.149 126.903 121.477 126.455 121.008C126.007 120.539 125.399 120.304 124.631 120.304C123.831 120.304 123.191 120.565 122.711 121.088C122.231 121.6 121.991 122.352 121.991 123.344V128H120.535V116.16H121.991V121.296C122.215 120.581 122.61 120.032 123.175 119.648C123.751 119.264 124.413 119.072 125.159 119.072ZM138.896 123.12C138.896 123.429 138.875 123.696 138.832 123.92H131.808C131.84 124.923 132.123 125.675 132.656 126.176C133.2 126.677 133.862 126.928 134.64 126.928C135.344 126.928 135.931 126.752 136.4 126.4C136.88 126.037 137.174 125.557 137.28 124.96H138.832C138.726 125.568 138.486 126.112 138.112 126.592C137.75 127.072 137.275 127.445 136.688 127.712C136.102 127.979 135.44 128.112 134.704 128.112C133.862 128.112 133.115 127.931 132.464 127.568C131.814 127.205 131.302 126.688 130.928 126.016C130.566 125.333 130.384 124.533 130.384 123.616C130.384 122.699 130.566 121.899 130.928 121.216C131.302 120.533 131.814 120.011 132.464 119.648C133.115 119.285 133.862 119.104 134.704 119.104C135.558 119.104 136.299 119.285 136.928 119.648C137.568 120.011 138.054 120.496 138.384 121.104C138.726 121.712 138.896 122.384 138.896 123.12ZM137.424 123.216C137.456 122.565 137.35 122.021 137.104 121.584C136.859 121.147 136.523 120.821 136.096 120.608C135.67 120.395 135.206 120.288 134.704 120.288C133.904 120.288 133.232 120.539 132.688 121.04C132.144 121.531 131.851 122.256 131.808 123.216H137.424ZM141.409 119.216L144.257 126.128L146.897 119.216H148.513L143.297 132.16H141.649L143.473 127.856L139.777 119.216H141.409ZM165.865 119.216L163.337 128H161.769L159.353 120.848L156.921 128H155.337L152.841 119.216H154.313L156.185 126.608L158.617 119.216H160.137L162.585 126.592L164.473 119.216H165.865ZM170.823 119.104C171.676 119.104 172.396 119.317 172.983 119.744C173.58 120.171 173.996 120.741 174.231 121.456V119.216H175.687V128H174.231V125.76C173.996 126.475 173.58 127.045 172.983 127.472C172.396 127.899 171.676 128.112 170.823 128.112C170.044 128.112 169.351 127.931 168.743 127.568C168.135 127.205 167.655 126.688 167.303 126.016C166.961 125.333 166.791 124.533 166.791 123.616C166.791 122.699 166.961 121.899 167.303 121.216C167.655 120.533 168.135 120.011 168.743 119.648C169.351 119.285 170.044 119.104 170.823 119.104ZM171.239 120.4C170.343 120.4 169.623 120.688 169.079 121.264C168.545 121.829 168.279 122.613 168.279 123.616C168.279 124.619 168.545 125.408 169.079 125.984C169.623 126.549 170.343 126.832 171.239 126.832C171.815 126.832 172.327 126.699 172.775 126.432C173.233 126.165 173.591 125.792 173.847 125.312C174.103 124.821 174.231 124.256 174.231 123.616C174.231 122.976 174.103 122.411 173.847 121.92C173.591 121.429 173.233 121.056 172.775 120.8C172.327 120.533 171.815 120.4 171.239 120.4ZM182.628 119.072C183.652 119.072 184.479 119.403 185.108 120.064C185.737 120.715 186.052 121.659 186.052 122.896V128H184.596V123.024C184.596 122.149 184.372 121.477 183.924 121.008C183.476 120.539 182.868 120.304 182.1 120.304C181.3 120.304 180.66 120.565 180.18 121.088C179.7 121.6 179.46 122.352 179.46 123.344V128H178.004V119.216H179.46V121.296C179.684 120.581 180.079 120.032 180.644 119.648C181.22 119.264 181.881 119.072 182.628 119.072ZM192.477 126.72V128H191.389C190.493 128 189.821 127.787 189.373 127.36C188.936 126.933 188.717 126.219 188.717 125.216V120.48H187.405V119.216H188.717V117.024H190.189V119.216H192.461V120.48H190.189V125.248C190.189 125.813 190.291 126.203 190.493 126.416C190.707 126.619 191.069 126.72 191.581 126.72H192.477ZM202.399 126.72V128H201.311C200.415 128 199.743 127.787 199.295 127.36C198.858 126.933 198.639 126.219 198.639 125.216V120.48H197.327V119.216H198.639V117.024H200.111V119.216H202.383V120.48H200.111V125.248C200.111 125.813 200.212 126.203 200.415 126.416C200.628 126.619 200.991 126.72 201.503 126.72H202.399ZM208.16 119.104C209.002 119.104 209.754 119.285 210.416 119.648C211.088 120.011 211.61 120.533 211.984 121.216C212.368 121.899 212.56 122.699 212.56 123.616C212.56 124.533 212.368 125.333 211.984 126.016C211.61 126.688 211.088 127.205 210.416 127.568C209.754 127.931 209.002 128.112 208.16 128.112C207.317 128.112 206.56 127.931 205.888 127.568C205.226 127.205 204.704 126.688 204.32 126.016C203.936 125.333 203.744 124.533 203.744 123.616C203.744 122.699 203.936 121.899 204.32 121.216C204.704 120.533 205.226 120.011 205.888 119.648C206.56 119.285 207.317 119.104 208.16 119.104ZM208.16 120.384C207.637 120.384 207.152 120.501 206.704 120.736C206.266 120.971 205.909 121.333 205.632 121.824C205.365 122.304 205.232 122.901 205.232 123.616C205.232 124.32 205.365 124.917 205.632 125.408C205.909 125.888 206.266 126.245 206.704 126.48C207.152 126.715 207.637 126.832 208.16 126.832C208.682 126.832 209.162 126.715 209.6 126.48C210.048 126.245 210.405 125.888 210.672 125.408C210.949 124.917 211.088 124.32 211.088 123.616C211.088 122.901 210.949 122.304 210.672 121.824C210.405 121.333 210.048 120.971 209.6 120.736C209.162 120.501 208.682 120.384 208.16 120.384ZM219.866 120.992C220.154 120.384 220.576 119.915 221.13 119.584C221.685 119.243 222.346 119.072 223.114 119.072V120.656H222.666C221.845 120.656 221.173 120.869 220.65 121.296C220.128 121.712 219.866 122.405 219.866 123.376V128H218.41V119.216H219.866V120.992ZM232.631 123.12C232.631 123.429 232.609 123.696 232.567 123.92H225.543C225.575 124.923 225.857 125.675 226.391 126.176C226.935 126.677 227.596 126.928 228.375 126.928C229.079 126.928 229.665 126.752 230.135 126.4C230.615 126.037 230.908 125.557 231.015 124.96H232.567C232.46 125.568 232.22 126.112 231.847 126.592C231.484 127.072 231.009 127.445 230.423 127.712C229.836 127.979 229.175 128.112 228.439 128.112C227.596 128.112 226.849 127.931 226.199 127.568C225.548 127.205 225.036 126.688 224.663 126.016C224.3 125.333 224.119 124.533 224.119 123.616C224.119 122.699 224.3 121.899 224.663 121.216C225.036 120.533 225.548 120.011 226.199 119.648C226.849 119.285 227.596 119.104 228.439 119.104C229.292 119.104 230.033 119.285 230.663 119.648C231.303 120.011 231.788 120.496 232.119 121.104C232.46 121.712 232.631 122.384 232.631 123.12ZM231.159 123.216C231.191 122.565 231.084 122.021 230.839 121.584C230.593 121.147 230.257 120.821 229.831 120.608C229.404 120.395 228.94 120.288 228.439 120.288C227.639 120.288 226.967 120.539 226.423 121.04C225.879 121.531 225.585 122.256 225.543 123.216H231.159ZM238.423 119.104C239.543 119.104 240.471 119.403 241.207 120C241.943 120.597 242.397 121.397 242.567 122.4H241.031C240.925 121.771 240.631 121.28 240.151 120.928C239.682 120.565 239.095 120.384 238.391 120.384C237.879 120.384 237.41 120.501 236.983 120.736C236.567 120.971 236.231 121.333 235.975 121.824C235.719 122.304 235.591 122.901 235.591 123.616C235.591 124.331 235.719 124.933 235.975 125.424C236.231 125.904 236.567 126.261 236.983 126.496C237.41 126.731 237.879 126.848 238.391 126.848C239.095 126.848 239.682 126.667 240.151 126.304C240.631 125.941 240.925 125.445 241.031 124.816H242.567C242.397 125.829 241.943 126.635 241.207 127.232C240.471 127.819 239.543 128.112 238.423 128.112C237.581 128.112 236.834 127.931 236.183 127.568C235.533 127.205 235.021 126.688 234.647 126.016C234.285 125.333 234.103 124.533 234.103 123.616C234.103 122.699 234.285 121.899 234.647 121.216C235.021 120.533 235.533 120.011 236.183 119.648C236.834 119.285 237.581 119.104 238.423 119.104ZM252.553 123.12C252.553 123.429 252.531 123.696 252.489 123.92H245.465C245.497 124.923 245.779 125.675 246.313 126.176C246.857 126.677 247.518 126.928 248.297 126.928C249.001 126.928 249.587 126.752 250.057 126.4C250.537 126.037 250.83 125.557 250.937 124.96H252.489C252.382 125.568 252.142 126.112 251.769 126.592C251.406 127.072 250.931 127.445 250.345 127.712C249.758 127.979 249.097 128.112 248.361 128.112C247.518 128.112 246.771 127.931 246.121 127.568C245.47 127.205 244.958 126.688 244.585 126.016C244.222 125.333 244.041 124.533 244.041 123.616C244.041 122.699 244.222 121.899 244.585 121.216C244.958 120.533 245.47 120.011 246.121 119.648C246.771 119.285 247.518 119.104 248.361 119.104C249.214 119.104 249.955 119.285 250.585 119.648C251.225 120.011 251.71 120.496 252.041 121.104C252.382 121.712 252.553 122.384 252.553 123.12ZM251.081 123.216C251.113 122.565 251.006 122.021 250.761 121.584C250.515 121.147 250.179 120.821 249.753 120.608C249.326 120.395 248.862 120.288 248.361 120.288C247.561 120.288 246.889 120.539 246.345 121.04C245.801 121.531 245.507 122.256 245.465 123.216H251.081ZM254.201 116.64C254.201 116.373 254.292 116.16 254.473 116C254.654 115.829 254.894 115.744 255.193 115.744C255.492 115.744 255.732 115.829 255.913 116C256.094 116.16 256.185 116.373 256.185 116.64C256.185 116.907 256.094 117.125 255.913 117.296C255.732 117.456 255.492 117.536 255.193 117.536C254.894 117.536 254.654 117.456 254.473 117.296C254.292 117.125 254.201 116.907 254.201 116.64ZM255.913 119.216V128H254.457V119.216H255.913ZM261.662 126.448L264.382 119.216H265.95L262.51 128H260.782L257.342 119.216H258.91L261.662 126.448ZM275.459 123.12C275.459 123.429 275.438 123.696 275.395 123.92H268.371C268.403 124.923 268.686 125.675 269.219 126.176C269.763 126.677 270.424 126.928 271.203 126.928C271.907 126.928 272.494 126.752 272.963 126.4C273.443 126.037 273.736 125.557 273.843 124.96H275.395C275.288 125.568 275.048 126.112 274.675 126.592C274.312 127.072 273.838 127.445 273.251 127.712C272.664 127.979 272.003 128.112 271.267 128.112C270.424 128.112 269.678 127.931 269.027 127.568C268.376 127.205 267.864 126.688 267.491 126.016C267.128 125.333 266.947 124.533 266.947 123.616C266.947 122.699 267.128 121.899 267.491 121.216C267.864 120.533 268.376 120.011 269.027 119.648C269.678 119.285 270.424 119.104 271.267 119.104C272.12 119.104 272.862 119.285 273.491 119.648C274.131 120.011 274.616 120.496 274.947 121.104C275.288 121.712 275.459 122.384 275.459 123.12ZM273.987 123.216C274.019 122.565 273.912 122.021 273.667 121.584C273.422 121.147 273.086 120.821 272.659 120.608C272.232 120.395 271.768 120.288 271.267 120.288C270.467 120.288 269.795 120.539 269.251 121.04C268.707 121.531 268.414 122.256 268.371 123.216H273.987ZM285.204 119.104C286.324 119.104 287.252 119.403 287.988 120C288.724 120.597 289.178 121.397 289.348 122.4H287.812C287.706 121.771 287.412 121.28 286.932 120.928C286.463 120.565 285.876 120.384 285.172 120.384C284.66 120.384 284.191 120.501 283.764 120.736C283.348 120.971 283.012 121.333 282.756 121.824C282.5 122.304 282.372 122.901 282.372 123.616C282.372 124.331 282.5 124.933 282.756 125.424C283.012 125.904 283.348 126.261 283.764 126.496C284.191 126.731 284.66 126.848 285.172 126.848C285.876 126.848 286.463 126.667 286.932 126.304C287.412 125.941 287.706 125.445 287.812 124.816H289.348C289.178 125.829 288.724 126.635 287.988 127.232C287.252 127.819 286.324 128.112 285.204 128.112C284.362 128.112 283.615 127.931 282.964 127.568C282.314 127.205 281.802 126.688 281.428 126.016C281.066 125.333 280.884 124.533 280.884 123.616C280.884 122.699 281.066 121.899 281.428 121.216C281.802 120.533 282.314 120.011 282.964 119.648C283.615 119.285 284.362 119.104 285.204 119.104ZM294.854 119.104C295.707 119.104 296.427 119.317 297.014 119.744C297.611 120.171 298.027 120.741 298.262 121.456V119.216H299.718V128H298.262V125.76C298.027 126.475 297.611 127.045 297.014 127.472C296.427 127.899 295.707 128.112 294.854 128.112C294.075 128.112 293.382 127.931 292.774 127.568C292.166 127.205 291.686 126.688 291.334 126.016C290.993 125.333 290.822 124.533 290.822 123.616C290.822 122.699 290.993 121.899 291.334 121.216C291.686 120.533 292.166 120.011 292.774 119.648C293.382 119.285 294.075 119.104 294.854 119.104ZM295.27 120.4C294.374 120.4 293.654 120.688 293.11 121.264C292.577 121.829 292.31 122.613 292.31 123.616C292.31 124.619 292.577 125.408 293.11 125.984C293.654 126.549 294.374 126.832 295.27 126.832C295.846 126.832 296.358 126.699 296.806 126.432C297.265 126.165 297.622 125.792 297.878 125.312C298.134 124.821 298.262 124.256 298.262 123.616C298.262 122.976 298.134 122.411 297.878 121.92C297.622 121.429 297.265 121.056 296.806 120.8C296.358 120.533 295.846 120.4 295.27 120.4ZM303.491 120.992C303.779 120.384 304.201 119.915 304.755 119.584C305.31 119.243 305.971 119.072 306.739 119.072V120.656H306.291C305.47 120.656 304.798 120.869 304.275 121.296C303.753 121.712 303.491 122.405 303.491 123.376V128H302.035V119.216H303.491V120.992ZM311.776 119.104C312.629 119.104 313.349 119.317 313.936 119.744C314.533 120.171 314.949 120.741 315.184 121.456V116.16H316.64V128H315.184V125.76C314.949 126.475 314.533 127.045 313.936 127.472C313.349 127.899 312.629 128.112 311.776 128.112C310.997 128.112 310.304 127.931 309.696 127.568C309.088 127.205 308.608 126.688 308.256 126.016C307.914 125.333 307.744 124.533 307.744 123.616C307.744 122.699 307.914 121.899 308.256 121.216C308.608 120.533 309.088 120.011 309.696 119.648C310.304 119.285 310.997 119.104 311.776 119.104ZM312.192 120.4C311.296 120.4 310.576 120.688 310.032 121.264C309.498 121.829 309.232 122.613 309.232 123.616C309.232 124.619 309.498 125.408 310.032 125.984C310.576 126.549 311.296 126.832 312.192 126.832C312.768 126.832 313.28 126.699 313.728 126.432C314.186 126.165 314.544 125.792 314.8 125.312C315.056 124.821 315.184 124.256 315.184 123.616C315.184 122.976 315.056 122.411 314.8 121.92C314.544 121.429 314.186 121.056 313.728 120.8C313.28 120.533 312.768 120.4 312.192 120.4ZM321.709 119.104C322.701 119.104 323.496 119.365 324.093 119.888C324.701 120.4 325.069 121.093 325.197 121.968H323.805C323.741 121.445 323.522 121.019 323.149 120.688C322.786 120.347 322.296 120.176 321.677 120.176C321.154 120.176 320.744 120.304 320.445 120.56C320.157 120.805 320.013 121.141 320.013 121.568C320.013 121.888 320.109 122.149 320.301 122.352C320.504 122.544 320.749 122.693 321.037 122.8C321.336 122.896 321.741 123.003 322.253 123.12C322.904 123.269 323.426 123.424 323.821 123.584C324.226 123.733 324.568 123.979 324.845 124.32C325.133 124.661 325.277 125.12 325.277 125.696C325.277 126.411 325.005 126.992 324.461 127.44C323.928 127.888 323.213 128.112 322.317 128.112C321.272 128.112 320.418 127.861 319.757 127.36C319.096 126.859 318.706 126.16 318.589 125.264H319.997C320.05 125.797 320.28 126.229 320.685 126.56C321.101 126.891 321.645 127.056 322.317 127.056C322.818 127.056 323.208 126.928 323.485 126.672C323.773 126.416 323.917 126.08 323.917 125.664C323.917 125.323 323.816 125.051 323.613 124.848C323.41 124.645 323.16 124.491 322.861 124.384C322.562 124.277 322.152 124.165 321.629 124.048C320.978 123.899 320.456 123.749 320.061 123.6C319.677 123.451 319.346 123.216 319.069 122.896C318.802 122.565 318.669 122.123 318.669 121.568C318.669 120.832 318.941 120.24 319.485 119.792C320.029 119.333 320.77 119.104 321.709 119.104Z" fill="#454545"/>
<path d="M141.458 38.7775C142.906 37.6313 143.567 37.1007 143.439 37.1856C147.614 33.7472 150.894 30.9243 153.28 28.717C155.708 26.5096 157.753 24.1961 159.414 21.7765C161.076 19.3569 161.906 17.001 161.906 14.7087C161.906 12.9683 161.502 11.6099 160.692 10.6336C159.883 9.65722 158.669 9.16905 157.05 9.16905C155.431 9.16905 154.153 9.78457 153.216 11.0156C152.321 12.2042 151.874 13.9022 151.874 16.1095H141.33C141.415 12.5013 142.182 9.48743 143.631 7.06781C145.122 4.6482 147.06 2.86533 149.446 1.7192C151.874 0.573066 154.558 0 157.497 0C162.567 0 166.379 1.2947 168.935 3.88411C171.534 6.47352 172.833 9.84824 172.833 14.0083C172.833 18.5504 171.278 22.7741 168.169 26.6794C165.059 30.5423 161.097 34.3203 156.283 38.0134H173.536V46.8641H141.458V38.7775Z" fill="#4D55F5"/>
<path d="M184.546 48.0102C182.629 48.0102 181.052 47.4583 179.817 46.3547C178.624 45.2085 178.028 43.8077 178.028 42.1522C178.028 40.4542 178.624 39.0322 179.817 37.886C181.052 36.7399 182.629 36.1668 184.546 36.1668C186.42 36.1668 187.954 36.7399 189.147 37.886C190.382 39.0322 191 40.4542 191 42.1522C191 43.8077 190.382 45.2085 189.147 46.3547C187.954 47.4583 186.42 48.0102 184.546 48.0102Z" fill="#4D55F5"/>
<path d="M139.128 40.7672C140.576 39.6211 141.237 39.0905 141.109 39.1754C145.284 35.737 148.564 32.9141 150.95 30.7067C153.378 28.4994 155.423 26.1859 157.084 23.7662C158.745 21.3466 159.576 18.9907 159.576 16.6984C159.576 14.958 159.171 13.5996 158.362 12.6233C157.553 11.647 156.338 11.1588 154.72 11.1588C153.101 11.1588 151.823 11.7743 150.886 13.0053C149.991 14.1939 149.544 15.8919 149.544 18.0993H139C139.085 14.4911 139.852 11.4772 141.3 9.05756C142.791 6.63795 144.73 4.85508 147.115 3.70894C149.544 2.56281 152.228 1.98975 155.167 1.98975C160.236 1.98975 164.049 3.28445 166.605 5.87386C169.204 8.46327 170.503 11.838 170.503 15.998C170.503 20.5401 168.948 24.7638 165.838 28.6691C162.729 32.532 158.767 36.31 153.953 40.0031H171.206V48.8538H139.128V40.7672Z" fill="#FA6044"/>
<path d="M182.216 49.9999C180.299 49.9999 178.722 49.4481 177.487 48.3444C176.294 47.1983 175.698 45.7975 175.698 44.1419C175.698 42.444 176.294 41.0219 177.487 39.8758C178.722 38.7296 180.299 38.1566 182.216 38.1566C184.09 38.1566 185.624 38.7296 186.816 39.8758C188.052 41.0219 188.67 42.444 188.67 44.1419C188.67 45.7975 188.052 47.1983 186.816 48.3444C185.624 49.4481 184.09 49.9999 182.216 49.9999Z" fill="#FA6044"/>
</svg>
