<svg width="52" height="50" viewBox="0 0 52 50" fill="none" xmlns="http://www.w3.org/2000/svg">
<path d="M2.45789 38.7775C3.90631 37.6313 4.56662 37.1007 4.43882 37.1856C8.61369 33.7472 11.8939 30.9243 14.2796 28.717C16.7078 26.5096 18.7527 24.1961 20.4141 21.7765C22.0755 19.3569 22.9062 17.001 22.9062 14.7087C22.9062 12.9683 22.5015 11.6099 21.6921 10.6336C20.8827 9.65722 19.6686 9.16905 18.0497 9.16905C16.4309 9.16905 15.1529 9.78457 14.2157 11.0156C13.3211 12.2042 12.8738 13.9022 12.8738 16.1095H2.33008C2.41528 12.5013 3.18209 9.48743 4.63052 7.06781C6.12154 4.6482 8.05988 2.86533 10.4455 1.7192C12.8738 0.573066 15.5576 0 18.4971 0C23.5665 0 27.3793 1.2947 29.9354 3.88411C32.534 6.47352 33.8333 9.84824 33.8333 14.0083C33.8333 18.5504 32.2784 22.7741 29.1685 26.6794C26.0587 30.5423 22.0968 34.3203 17.2829 38.0134H34.5362V46.8641H2.45789V38.7775Z" fill="#4D55F5"/>
<path d="M45.5457 48.0102C43.6287 48.0102 42.0524 47.4583 40.817 46.3547C39.6242 45.2085 39.0278 43.8077 39.0278 42.1522C39.0278 40.4542 39.6242 39.0322 40.817 37.886C42.0524 36.7399 43.6287 36.1668 45.5457 36.1668C47.4201 36.1668 48.9537 36.7399 50.1466 37.886C51.382 39.0322 51.9997 40.4542 51.9997 42.1522C51.9997 43.8077 51.382 45.2085 50.1466 46.3547C48.9537 47.4583 47.4201 48.0102 45.5457 48.0102Z" fill="#4D55F5"/>
<path d="M0.127808 40.7672C1.57623 39.6211 2.23655 39.0905 2.10874 39.1754C6.28361 35.737 9.56387 32.9141 11.9495 30.7067C14.3777 28.4994 16.4226 26.1859 18.084 23.7662C19.7454 21.3466 20.5762 18.9907 20.5762 16.6984C20.5762 14.958 20.1714 13.5996 19.362 12.6233C18.5526 11.647 17.3385 11.1588 15.7197 11.1588C14.1008 11.1588 12.8228 11.7743 11.8856 13.0053C10.991 14.1939 10.5437 15.8919 10.5437 18.0993H0C0.0852015 14.4911 0.852015 11.4772 2.30044 9.05756C3.79147 6.63795 5.7298 4.85508 8.11544 3.70894C10.5437 2.56281 13.2275 1.98975 16.167 1.98975C21.2365 1.98975 25.0492 3.28445 27.6053 5.87386C30.2039 8.46327 31.5032 11.838 31.5032 15.998C31.5032 20.5401 29.9483 24.7638 26.8385 28.6691C23.7286 32.532 19.7667 36.31 14.9529 40.0031H32.2061V48.8538H0.127808V40.7672Z" fill="#FA6044"/>
<path d="M43.2156 49.9999C41.2986 49.9999 39.7224 49.4481 38.4869 48.3444C37.2941 47.1983 36.6977 45.7975 36.6977 44.1419C36.6977 42.444 37.2941 41.0219 38.4869 39.8758C39.7224 38.7296 41.2986 38.1566 43.2156 38.1566C45.09 38.1566 46.6237 38.7296 47.8165 39.8758C49.0519 41.0219 49.6696 42.444 49.6696 44.1419C49.6696 45.7975 49.0519 47.1983 47.8165 48.3444C46.6237 49.4481 45.09 49.9999 43.2156 49.9999Z" fill="#FA6044"/>
</svg>
