<svg width="54" height="50" viewBox="0 0 54 50" fill="none" xmlns="http://www.w3.org/2000/svg">
<path d="M2.91346 14.1812C3.08428 9.64494 4.57903 6.14732 7.3977 3.6884C10.2164 1.22947 14.0386 0 18.8645 0C22.0676 0 24.8008 0.55114 27.0643 1.65342C29.3705 2.7557 31.1001 4.26073 32.2532 6.16852C33.449 8.07631 34.0469 10.2173 34.0469 12.5914C34.0469 15.3895 33.3422 17.6789 31.9329 19.4595C30.5235 21.1977 28.8793 22.3847 27.0002 23.0207V23.275C29.4345 24.0805 31.3563 25.416 32.7657 27.2814C34.175 29.1468 34.8797 31.5421 34.8797 34.4674C34.8797 37.0959 34.2604 39.4277 33.0219 41.4626C31.8261 43.4552 30.0538 45.0238 27.7049 46.1685C25.3987 47.3132 22.6441 47.8855 19.4411 47.8855C14.3162 47.8855 10.2164 46.6349 7.14145 44.1335C4.10925 41.6322 2.50774 37.859 2.33691 32.814H12.971C13.0137 34.6794 13.5475 36.1632 14.5725 37.2655C15.5974 38.3254 17.0922 38.8553 19.0567 38.8553C20.7223 38.8553 22.0035 38.389 22.9003 37.4563C23.8399 36.4812 24.3097 35.2093 24.3097 33.6407C24.3097 31.6057 23.6477 30.1431 22.3238 29.2528C21.0426 28.3201 18.9713 27.8537 16.1099 27.8537H14.06V19.0143H16.1099C18.288 19.0143 20.039 18.6539 21.3629 17.9332C22.7295 17.1701 23.4128 15.8347 23.4128 13.9269C23.4128 12.4006 22.9858 11.2136 22.1316 10.3657C21.2775 9.51775 20.103 9.0938 18.6083 9.0938C16.9854 9.0938 15.7683 9.58135 14.9568 10.5564C14.1881 11.5315 13.7397 12.7398 13.6116 14.1812H2.91346Z" fill="#4D55F5"/>
<path d="M47.5296 48.0127C45.6078 48.0127 44.0277 47.4616 42.7892 46.3593C41.5934 45.2146 40.9954 43.8156 40.9954 42.1622C40.9954 40.4663 41.5934 39.0461 42.7892 37.9014C44.0277 36.7568 45.6078 36.1844 47.5296 36.1844C49.4087 36.1844 50.9462 36.7568 52.142 37.9014C53.3805 39.0461 53.9997 40.4663 53.9997 42.1622C53.9997 43.8156 53.3805 45.2146 52.142 46.3593C50.9462 47.4616 49.4087 48.0127 47.5296 48.0127Z" fill="#4D55F5"/>
<path d="M0.576541 16.1685C0.747369 11.6322 2.24212 8.13463 5.06078 5.6757C7.87945 3.21677 11.7017 1.9873 16.5276 1.9873C19.7306 1.9873 22.4639 2.53844 24.7274 3.64072C27.0335 4.743 28.7632 6.24803 29.9163 8.15583C31.1121 10.0636 31.71 12.2046 31.71 14.5787C31.71 17.3768 31.0053 19.6662 29.596 21.4468C28.1866 23.185 26.5424 24.372 24.6633 25.008V25.2623C27.0976 26.0679 29.0194 27.4033 30.4288 29.2687C31.8381 31.1341 32.5428 33.5294 32.5428 36.4547C32.5428 39.0832 31.9235 41.415 30.685 43.4499C29.4892 45.4425 27.7169 47.0111 25.368 48.1558C23.0618 49.3005 20.3072 49.8728 17.1042 49.8728C11.9793 49.8728 7.87944 48.6222 4.80454 46.1208C1.77234 43.6195 0.170828 39.8463 0 34.8013H10.634C10.6768 36.6667 11.2106 38.1505 12.2356 39.2528C13.2605 40.3127 14.7553 40.8426 16.7198 40.8426C18.3854 40.8426 19.6666 40.3763 20.5634 39.4436C21.503 38.4685 21.9728 37.1966 21.9728 35.628C21.9728 33.593 21.3108 32.1304 19.9869 31.2401C18.7057 30.3074 16.6344 29.841 13.773 29.841H11.7231V21.0016H13.773C15.9511 21.0016 17.7021 20.6413 19.026 19.9205C20.3926 19.1574 21.0759 17.822 21.0759 15.9142C21.0759 14.3879 20.6489 13.2009 19.7947 12.353C18.9406 11.5051 17.7661 11.0811 16.2714 11.0811C14.6485 11.0811 13.4314 11.5687 12.6199 12.5437C11.8512 13.5188 11.4028 14.7271 11.2747 16.1685H0.576541Z" fill="#FA6044"/>
<path d="M45.1927 50C43.2709 50 41.6907 49.4489 40.4522 48.3466C39.2564 47.2019 38.6585 45.8029 38.6585 44.1495C38.6585 42.4537 39.2564 41.0334 40.4522 39.8887C41.6907 38.7441 43.2709 38.1717 45.1927 38.1717C47.0718 38.1717 48.6093 38.7441 49.8051 39.8887C51.0436 41.0334 51.6628 42.4537 51.6628 44.1495C51.6628 45.8029 51.0436 47.2019 49.8051 48.3466C48.6093 49.4489 47.0718 50 45.1927 50Z" fill="#FA6044"/>
</svg>
