<svg width="40" height="50" viewBox="0 0 40 50" fill="none" xmlns="http://www.w3.org/2000/svg">
<path d="M2.00586 10.3347V0H19.7843V47.4488H8.35989V10.3347H2.00586Z" fill="#4D55F5"/>
<path d="M33.5178 47.9688C31.5923 47.9688 30.0092 47.4055 28.7683 46.2788C27.5702 45.1089 26.9712 43.6789 26.9712 41.9889C26.9712 40.2557 27.5702 38.804 28.7683 37.6341C30.0092 36.4641 31.5923 35.8791 33.5178 35.8791C35.4004 35.8791 36.9408 36.4641 38.1389 37.6341C39.3797 38.804 40.0002 40.2557 40.0002 41.9889C40.0002 43.6789 39.3797 45.1089 38.1389 46.2788C36.9408 47.4055 35.4004 47.9688 33.5178 47.9688Z" fill="#4D55F5"/>
<path d="M0 12.366V2.03125H17.7784V49.4801H6.35403V12.366H0Z" fill="#FA6044"/>
<path d="M31.5119 50C29.5864 50 28.0033 49.4367 26.7624 48.3101C25.5644 47.1401 24.9653 45.7102 24.9653 44.0202C24.9653 42.2869 25.5644 40.8353 26.7624 39.6653C28.0033 38.4953 29.5864 37.9104 31.5119 37.9104C33.3946 37.9104 34.935 38.4953 36.133 39.6653C37.3739 40.8353 37.9943 42.2869 37.9943 44.0202C37.9943 45.7102 37.3739 47.1401 36.133 48.3101C34.935 49.4367 33.3946 50 31.5119 50Z" fill="#FA6044"/>
</svg>
